<?xml version="1.0" encoding="UTF-8"?>
<svg id="Layer_1" xmlns="http://www.w3.org/2000/svg" width="42.9" height="40.7" version="1.1" viewBox="0 0 42.9 40.7">
  <!-- Generator: Adobe Illustrator 29.2.1, SVG Export Plug-In . SVG Version: 2.1.0 Build 116)  -->
  <path d="M3.9,28.1v-3.3h-1.9c-.9-.7.3-3.1.7-3.8s1.2-.9,1.5-1.4c-1.6.4-1.6-.6-2.3-1.1s-1.3-.1-1.6-1.1c-1.3-3.7,5.3-2.5,7.2-3,.6-.5-2.1-2.4-2.2-2.7-.8-2.8,2.7-2.8,4.4-3.5-1.3-1-3-2.4-2.3-4.2.5-.8,5.1,0,6.2,0V1.8l.4-.4c.5-.2,3.6,0,4.3.2s.2.4.4.5c1.7.8,2.7-1.2,3.9-1.7C24.7-.5,27.4,0,27.2,2.7c1.2-.5,3.2-.2,3.8,1,.6,1.2,0,.8,0,.9.5.5,5.8-1.2,5.1,2.3-.7,3.5-1.3,1.4-1.6,2.4,1.9.1,6.4-.7,5,2.5-2,1.4-2.8,3.1-3.7,5.3l3.1,1.5c.7,1.2,4.3,3.3,4,4.7s-2.7,1.9-3,2.3-.4,3-.3,3.4c-.3,1.1-2.7.3-3,.5v1.7c0,.6-.2,1.4-.6,1.5-1.6.2-3,0-4.5-.5-.4.8,0,3-.7,3.2l-3.2-.5c-.5,1.5-1.2,1.6-2.8,1.4s-1.8-1.2-2.8-1.4l-.6,1.9h-2.4c-.3-.8-.6-1.7-1.7-1.6.2,1.7-1,2.4-2.6,2.2s-.7-.6-1-1c-.6-.7-2-1-2.7-1.2-2.3-.8-4.6-1.4-4.9-4.3l-1.7-.3c-.3-.8-.3-1.6-.4-2.5h-.1ZM25.1,2.4c-2-.2-4.2,0-4.3,2.5l2,2.1c1.5-.9,1-1.8,1.3-3s1-.9,1-1.6ZM18.8,4.2c-.5-.3-3.7-1.5-4-1.2,0,3,3.8,3.9,5.1,6.5l1.8,1.1c.7-1.6,1.1-3.1-.4-4.4s-1.2-.4-1.4-.6-.4-1.1-1-1.5h-.1v.1ZM22.7,10.1c-.1.2-.5.2-.4.8s.8,2.2,1.4,2.4,1-1.8,1.2-2.2h.8c.9-2.4,4.1-4.1,3.1-7-.6,0-.8.5-1.3.8s-1.6.4-2.1.7c-1.5.9-1.9,3-2.6,4.6h-.1v-.1ZM16,7c-.4-.3-.8-1.2-1.6-1.3l-5-.3c.4,1.1,1.4,1.8,2.2,2.6s.9,1.4,2.2,1.9,3.5.2,3.6,2c.7.5,1.6-1.9,1.3-2.8s-2.1-1.8-2.6-2.2h0l-.1.1ZM29.7,11.9c.7-.8,1-2.3,1.4-2.8s2.1-1.4,2.6-2c.7-1.3-3.4-.8-3.9-.5s-1.5,2.9-2.4,3.2c.2,1.1,1.4,1.1,1,2.7.3-.2,1.1-.4,1.3-.6ZM16.1,13.1c-.3-.6-.9-1.4-1.4-1.7s-2.8-1.2-3.4-1.3-3.5.4-3.9.7-.4.4,0,.7c1.5,1.3,3.1,2.1,4.2,3.8s0,.6.3,1c1.2,1.7,3.1,1.6,4.9,1.5-.2-1.8.3-3-.5-4.6h-.2v-.1ZM19.1,17.5c.3.2,2.3.8,2.6.8,1.7.2,1.9-1.1,1.8-2.5s-3.1-6.2-4.1-5.2c.1,2-2.8,5.5-.3,6.8h0v.1ZM26.7,17.7c.4-.2.8-2,.9-2.5s-.2-4.1-.7-4.2c-1.2,0-1.1,2-1.3,2.1s-.6,0-.8.2c-.6.7-.9,3.8,0,4.3s1.5.3,1.9,0h0v.1ZM33.6,16.9c.6-1.3,2.2-4,3.2-5s.5-.7.6-1h-4.2c-.9,0-1.9,1.6-2.4,2.3s-.9,0-.8,1.5c-.7-.9-1.8,1.2-1.9,1.6-.7,2.6,3.5,1.9,5,2,.3,0,.3-1,.4-1.4h.1ZM10.4,16.9c-1.4-.3-.9-.3-1.7-.6s-2.8-.1-3.6,0-.2.5-.4.5c-.6.1-1.4,0-2,0,.6,1.2,3.4,1.2,4.1,1.8s.3,1,.6,1.3.9.8,1.3,1.3,0,.6.5.8c.6.3,1.9.3,2.6.2s.5-.5.6-.6c.3-.2.8,0,1.2-.3s.9-1.5,1.5-1.8c.2-.9-2-1.1-2.6-1.4s-.5-.8-2-1.2c0,0-.1,0-.1,0ZM21.3,18.9c-1.1,0-3.2-1.3-4.1-.7s-.3.9-.6,1.2-1.3.8-1.7,1.3c-1.4,1.5-1.5,3.4-.9,5.4.4.3,2.5-2,3.1-2.2.9-.4,2,0,3.1-.4s.7-.8,1.4-.8l-.2-3.5v-.3h-.1ZM29.2,18.9c-.6-.4-3.8-.5-4.4-.3s-.4.6-.5.7c-.4.2-1.1,0-1.4.6-1.5,2.9,3.1,2.6,4.7,3.5h5.9c-.4-2-2.1-2.9-3.7-3.8s-.4-.6-.5-.7c0,0-.1,0-.1,0ZM41,23.2c-1.1-.7-1.7-2.3-2.8-2.8s-3.7-.9-4.6-.9c-1.7-.1-.2,1.1,0,1.6s.6,2.4,1,2.7.7.1,1,.3,0,.4.3.4c.5.1,1.6.2,1.5-.5l.9.5,2.6-1.4h0l.1.1ZM3.9,23.2l2.3.5,1.5-2c-1-1.9-3.8-.1-3.8,1.5ZM9.5,24.5c.8-1.2-.8-2-1.5-1.7-1.4.6-4.5,6.6-1.1,6.1,0,0,.7-2.3.9-2.6.2-.3,1.4-1.4,1.7-1.8ZM12.6,23.5c-.4,0-.8-.3-1.2,0-1.2.8-2.6,3.8-3.7,4.9-.5,1.6,0,2.9,1,4.1,2,.2,1.2-3.1,3.7-2.4-.1-1.8,1.3-2.1.8-4.2s-.5-.2-.5-.4c-.1-.6.1-1.3,0-2,0,0-.1,0-.1,0ZM30.3,24.5s-.3-.7-.5-.5c-.1,1-2.3.2-3,1.5.3,1.1,1.4,1.5,2.2,2,1.1.7,2.5,1.3,3.5,2.1s.8,1.3,1.6,1.5c.6-2,0-4.2,0-6.3-.4-.6-3,0-3.7-.3h-.1ZM15.6,35.5c.4-2,1-4.2,2.2-5.9s3.1-2.2,1.9-4.4c-.7,0-1.7-.4-2.4-.4-1.2,0-3.5,2.9-3.8,4.1s-.2,1.6-.1,2.3.9,5,2.2,4.2h0v.1ZM26.4,26.3c-1.9-1.8-4.4-1.8-4.8,1.2-.4,2.9.4,4.2,2.3,6.1s1.5,1.8,2.3.3,1.5-5.5,1.1-6.5c-.6-.2-.7-1.1-.9-1.2h0v.1ZM37.9,25.4c-1.9-.4-2.3.4-3,2,0,.6,2.5.5,3,.3.5-.4.2-1.8,0-2.3ZM20.5,29c-.2-.1-1.2-.1-1.3,0s-1.1,2.3-1.1,2.5c0,.9,1,2.6,1.7,3.1.2,0,1.7-2,1.7-2.4s-.9-3.2-1.1-3.3h0l.1.1ZM30.5,30.5c.6-1.4-1.6-2.3-2.2-1s.2,1.8-.7,1.9l1.5,2.1c.6,0,.3-.3.4-.6.2-.7.3-1.5.5-2.2s.4-.2.4-.3h.1v.1ZM12.3,30.8l-1,.3v2.1l1.3-.7-.2-1.7s-.1,0-.1,0Z" fill="#0e1110"/>
  <path d="M26.4,26.3c.1.1.2,1,.9,1.2.4,1-.6,5.4-1.1,6.5-.7,1.5-1.5.4-2.3-.3-1.9-2-2.7-3.3-2.3-6.1.4-3,2.9-3,4.8-1.2h0v-.1Z" fill="#424242" isolation="isolate" opacity=".3"/>
  <path d="M15.6,35.5c-1.2.8-2.1-3.4-2.2-4.2s0-1.6.1-2.3c.3-1.2,2.6-4.1,3.8-4.1s1.6.4,2.4.4c1.2,2.2-.9,3-1.9,4.4s-1.8,3.9-2.2,5.9h0v-.1Z" fill="#424242" isolation="isolate" opacity=".3"/>
  <path d="M29.2,18.9c.2,0,.2.5.5.7,1.6.9,3.3,1.9,3.7,3.9h-5.9c-1.5-1-6.1-.7-4.7-3.6s1-.4,1.4-.6.2-.6.5-.7c.6-.2,3.8,0,4.4.3h.1Z" fill="#7cae4c"/>
  <path d="M21.3,18.9l.2,3.5c-.6,0-1,.7-1.4.8-1.1.4-2.2,0-3.1.4s-2.6,2.6-3.1,2.2c-.5-2-.5-3.8.9-5.4s1.3-.9,1.7-1.3.3-.9.6-1.2c.9-.5,3,.7,4.1.7v.3h.1Z" fill="#7cae4c"/>
  <path d="M12.6,23.5c.1.6-.1,1.4,0,2s.5.2.5.4c.5,2.1-.9,2.3-.8,4.2-2.4-.6-1.7,2.7-3.7,2.4-1.1-1.2-1.5-2.5-1-4.1,1-1.1,2.5-4.1,3.7-4.9s.8,0,1.2,0h.1Z" fill="#424242" isolation="isolate" opacity=".3"/>
  <path d="M16,7c.5.4,2.4,1.6,2.6,2.2.3.9-.7,3.3-1.3,2.8,0-1.8-2.3-1.5-3.6-2s-1.5-1.2-2.2-1.9-1.8-1.5-2.2-2.6l5,.3c.8,0,1.2.9,1.6,1.3h0l.1-.1Z" fill="#7cae4c"/>
  <path d="M11.5,15.3c-1.1-1.7-2.7-2.5-4.2-3.8-.3-.3,0-.5,0-.7.4-.3,3.4-.8,3.9-.7s2.8.9,3.4,1.3,1.1,1.2,1.4,1.7c-1.1.2-1.3,1.7-2,2-1,.5-1.8-.4-2.7.2h.2Z" fill="#7cae4c"/>
  <path d="M30.1,14.7c0-1.5.3-.9.8-1.5s1.5-2.3,2.4-2.3h4.2c-.2.3-.4.7-.6,1-1,1.1-2.6,3.7-3.2,5-1.2.4-1.2-.4-1.7-.6-1.1-.6-1.8-.3-1.8-1.6,0,0-.1,0-.1,0Z" fill="#7cae4c"/>
  <path d="M41,23.2l-2.6,1.4-.9-.5c.2.7-.9.7-1.5.5s-.2-.4-.3-.4c-.4-.1-.7,0-1-.3s-.7-2.1-1-2.7-1.8-1.7,0-1.6,3.9.6,4.6.9c1.1.5,1.7,2.1,2.8,2.8h0l-.1-.1Z" fill="#424242" isolation="isolate" opacity=".3"/>
  <path d="M18.8,4.2c.5.3.8,1.3,1,1.5s.9.2,1.4.6c1.5,1.3,1.1,2.8.4,4.4l-1.8-1.1c-1.2-2.6-5-3.5-5.1-6.5.3-.3,3.5.9,4,1.2h.1v-.1Z" fill="#7cae4c"/>
  <path d="M22.7,10.1c.7-1.6,1.1-3.7,2.6-4.6s1.5-.4,2.1-.7.7-.8,1.3-.8c1,2.9-2.2,4.6-3.1,7-.2.1-.6,0-.8,0-.5-.1-1.7-.8-2.2-1.1v.2s.1,0,.1,0Z" fill="#7cae4c"/>
  <path d="M23.5,15.8c-1.7-.5-1.4.9-2.1,1.3s-1.6.3-2.3.3c-2.6-1.3.4-4.8.3-6.8,1-1,4,4.3,4.1,5.2Z" fill="#7cae4c"/>
  <path d="M30.3,24.5c.7.3,3.3-.4,3.7.3,0,2.1.7,4.2,0,6.3-.8-.2-1.1-1.1-1.6-1.5-1.1-.8-2.4-1.3-3.5-2.1l1.4-3h-.1.1Z" fill="#424242" isolation="isolate" opacity=".3"/>
  <path d="M8.8,21.3c-.4-.4-1-.9-1.3-1.3s-.2-1-.6-1.3c-.7-.6-3.5-.6-4.1-1.8.6,0,1.4.1,2,0s.2-.5.4-.5c.8-.2,2.8-.4,3.6,0s.3.3,1.7.6c.8,2.1.3,3.4-1.6,4.4h0l-.1-.1Z" fill="#7cae4c"/>
  <path d="M29.7,11.9c-.2.3-.9.4-1.3.6.5-1.6-.8-1.6-1-2.7.9-.3,2-3,2.4-3.2s4.6-.8,3.9.5c-.5.6-2.3,1.5-2.6,2s-.7,2-1.4,2.8Z" fill="#7cae4c"/>
  <path d="M10.4,16.9c1.5.3,1.2.8,2,1.2s2.8.5,2.6,1.4c-.6.4-1.1,1.6-1.5,1.8s-.8.2-1.2.3-.1.5-.6.6-2,0-2.6-.2-.3-.6-.5-.8c1.9-1,2.4-2.3,1.6-4.4h.2v.1Z" fill="#424242" isolation="isolate" opacity=".3"/>
  <path d="M26.7,17.7c-.3.2-1.5.1-1.9,0-.9-.5-.6-3.6,0-4.3s.7,0,.8-.2c.2-.2.1-2.2,1.3-2.1.5.1.7,3.6.7,4.2s-.5,2.3-.9,2.5h0v-.1Z" fill="#7cae4c"/>
  <path d="M16.1,13.1c.8,1.6.4,2.9.5,4.6-1.9,0-3.8.2-4.9-1.5-.3-.4-.2-.9-.3-1,.9-.6,1.6.3,2.7-.2s.9-1.8,2-2h0v.1Z" fill="#424242" isolation="isolate" opacity=".3"/>
  <path d="M9.5,24.5c-.3.4-1.6,1.6-1.7,1.8s-.8,2.5-.9,2.6c-3.4.5-.2-5.5,1.1-6.1,1.3-.6,2.4.5,1.5,1.7Z" fill="#424242" isolation="isolate" opacity=".3"/>
  <path d="M20.5,29c.1,0,1.1,3.2,1.1,3.3,0,.4-1.5,2.4-1.7,2.4-.7-.6-1.8-2.2-1.7-3.1s1-2.4,1.1-2.5,1.1-.1,1.3,0h0l-.1-.1Z" fill="#424242" isolation="isolate" opacity=".3"/>
  <path d="M30.1,14.7c0,1.3.8,1,1.8,1.6,1,.6.5,1,1.7.6-.2.3-.2,1.3-.4,1.4-1.5,0-5.6.6-5-2,0-.4,1.1-2.4,1.9-1.6Z" fill="#424242" isolation="isolate" opacity=".3"/>
  <path d="M25.1,2.4c0,.7-.8,1-1,1.6-.4,1.2.1,2.1-1.3,3l-2-2.1c.1-2.4,2.3-2.8,4.3-2.5Z" fill="#7cae4c"/>
  <path d="M30.5,30.5s-.4,0-.4.3c-.2.7-.3,1.5-.5,2.2s.2.8-.4.6l-1.5-2.1c.8,0,.3-1.1.7-1.9.6-1.3,2.8-.4,2.2,1h-.1v-.1Z" fill="#424242" isolation="isolate" opacity=".3"/>
  <path d="M3.9,23.2c0-1.6,2.9-3.4,3.8-1.5l-1.5,2s-2.3-.5-2.3-.5Z" fill="#424242" isolation="isolate" opacity=".3"/>
  <path d="M37.9,25.4c.3.5.6,1.9,0,2.3-.5.2-2.9.3-3-.3.6-1.6,1.1-2.4,3-2Z" fill="#424242" isolation="isolate" opacity=".3"/>
  <path d="M30.3,24.5l-1.4,3c-.8-.5-1.8-1-2.2-2,.7-1.3,2.9-.5,3-1.5.2-.2.5.5.5.5h.1Z" fill="#424242" isolation="isolate" opacity=".3"/>
  <path d="M23.5,15.8c.1,1.4,0,2.7-1.8,2.5s-2.3-.7-2.6-.8c.7,0,1.7,0,2.3-.3s.4-1.8,2.1-1.3h0v-.1Z" fill="#424242" isolation="isolate" opacity=".3"/>
  <path d="M24.9,11.2c-.2.4-.6,2.4-1.2,2.2s-1.3-1.8-1.4-2.4.3-.6.4-.8c.5.3,1.6,1,2.2,1.1h0v-.1Z" fill="#424242" isolation="isolate" opacity=".3"/>
  <polygon points="12.3 30.8 12.6 32.6 11.2 33.3 11.3 31.1 12.3 30.8" fill="#424242" isolation="isolate" opacity=".3"/>
</svg>