<?xml version="1.0" encoding="UTF-8"?>
<svg id="Layer_1" xmlns="http://www.w3.org/2000/svg" width="79.2" height="37.7" version="1.1" viewBox="0 0 79.2 37.7">
  <!-- Generator: Adobe Illustrator 29.2.1, SVG Export Plug-In . SVG Version: 2.1.0 Build 116)  -->
  <defs>
    <style>
      .st0 {
        fill: #4f4752;
      }

      .st1 {
        fill: #e5b7b7;
      }

      .st2 {
        fill: #fff;
      }

      .st3 {
        fill: #37333a;
      }

      .st4 {
        fill: #77697a;
      }

      .st5 {
        fill: #d6d6d6;
      }

      .st6 {
        fill: #6a5d6d;
      }

      .st7 {
        fill: #fffeca;
      }
    </style>
  </defs>
  <path class="st3" d="M75,32.5c-1.6,1.2-2.6.9-3.9,1.6s-1.2,1.5-1.8,2c-3.8,3.3-9,1.9-11.3-2.3H23.2c-3.2,5.6-10.4,5.5-13.4-.2-4.5.3-9.4,0-8.6-5.8.1-.9.7-1.4.8-2.4.5-3.8-.4-8.5,0-12.5,0-.9.3-2.3,1.2-2.9,1-.6,4.6-1.6,5.9-2.1,1.3-.4,2.9-.5,4.1-1.1,2.6-1.2,7.1-5.2,10.1-5.7,6-1,18.6-1.1,24.5.2,5.7,1.2,10.6,5.5,16.6,7,2.7.7,6.1.8,8.6,1.8,2.1.9,5.1,3.8,5.4,6.1.3,2.1.3,8.7,0,10.8-.3,2.1-1.7,4-3.4,5.3ZM34.9,2.5c-3.4,0-7.9,0-11.2.5s-1.7.9-2.5,1.1v11.3c-.4,1.3-1.7,1.3-2.6,1.9-1.5,1-2.5,1.7-4,2.6-.8-.2-1.6-1.2-1.6-2v-9.1c-1.3-.4-2,.4-3,.7-1.8.4-5.2.6-6.2,2.4s-.5,10.2.2,11.3,1.1.7,1.3.7c3.3,2.9,2.6,6.4-2.4,5.6,0,.8-.3,1.5.6,1.9.8.4,5,.8,5.6.3s.2-1,.4-1.5,2.2-2.2,2.4-2.4c3.3-2.6,7.7-2,10.2,1.3s1,2.2,1.6,2.4h33.2c.6-.1,1.1-1.6,1.6-2.4,3-4,8.2-3.8,11.5-.1.4.4,1.5,2.3,1.7,2.4,1,.6,4.1-.9,4-2.3-2.2,0-4.3-2-3.8-4.2,1.2.2,3.9-.5,4.5-1.6.4-.8.2-6.3-.2-7.2s-1.8-2.4-2.1-2.7c-4-3.7-10.9-2.3-15.5-5.2-.9.2-.1,3.6-.1,4.4,0,1.8,0,4.4-.3,6.1s-.3,1-.5,1.4c-2-.8-8.9-4.2-10.3-4.5V3.3c-4.2-.5-8.2-.8-12.4-.8s-.2,0-.3,0ZM48.6,4.1v10.7c2.6,1.6,5.4,2.8,8.4,3.6.1-3.7.7-7.4-.2-11-.3-.4-5.9-3.2-6.6-3.4-.7-.2-.9,0-1.6,0ZM20,15.1V4.8c0-1.1-3.7,1-4,1.3-1.5,1.2-1.9,4.3-2,6.1s.3,6.5,1,6.5c.8-1.2,4.7-2.4,5-3.6ZM3,25c0,1.9-.4,3.1,2,2.9,3.4-.2-1.6-3.4-2-2.9ZM76.2,27.9v-2.6s-3,.9-3,.9c.6,1.2,1.6,2,3,1.7ZM14.1,28.7s0-.2-.4,0c-1.4.5-2.7,2.6-2.4,4.1.9,4.8,9.7,4.8,10.6,0s-1.1-3.7-2.6-4.1-.5.2-.5.2c-2.3-.6-2.3-.7-4.6,0ZM62.1,28.7s0-.2-.4,0c-1.9.7-2.9,3-2.1,4.8,1.4,3.2,6.4,3.7,8.9,1.5.4-.4.2-.6.2-.7.1-.2.9-.8.9-.9.2-.4-.6-.6.3-.9.3-.9-.4-.9-.8-1.4s0-.5-.4-.8c-2.1-2.3-3.7-2.5-6.6-1.6Z"/>
  <path class="st5" d="M35.1,2.5l.3,12.4c.2.2,3.7-.1,4.5,0s1,.5,1.6.6c1.7.2,4.7,0,6.1.3s8.3,3.7,10.3,4.5,2.2,1.4,3.2,1.8c2.1.8,8.9,2.6,11.1,3-.5,2.2,1.6,4.3,3.8,4.2.1,1.4-3,2.9-4,2.3s-1.3-2-1.7-2.4c-3.2-3.7-8.4-3.8-11.5.1s-1,2.2-1.6,2.4H23.9c-.6-.1-1.1-1.6-1.6-2.4-2.5-3.3-6.9-3.9-10.2-1.3-.3.2-2.3,2.2-2.4,2.4-.2.5,0,1.2-.4,1.5-.6.4-4.8,0-5.6-.3-.9-.4-.6-1.1-.6-1.9,5,.8,5.8-2.7,2.4-5.6,3.1,0,6.7-2.4,9.2-4,1.5-.9,2.5-1.6,4-2.6s2.2-.6,2.5-1.9c.8,0,1.7.1,2.6,0,.4,0,.7-.4,1.3-.5,1.4-.2,9.3.3,9.6,0l.3-12.4c0,0,.2,0,.3,0ZM27.5,17.7c-.9,0-1.7.8-1.8,1.7s-.4,3.7,1,3.8c7.2-.4,15.3.7,22.4,0,.6,0,1.4,0,1.7-.7,1-2.4-4.4-3.7-5.8-4.8h-17.4ZM24.6,22.5v-4c-.8-.9-1.9-.7-2.9-.2s-3.8,2.5-3.8,3.4c0,.7.6,1.3,1.3,1.4s5.3.3,5.5-.7ZM28.6,25.3c-2.3.7,3.1,1.7,3.3.6s-2.8-.8-3.3-.6Z"/>
  <path class="st2" d="M72.1,25c-2.2-.4-9.1-2.2-11.1-3-1-.4-2.1-1.3-3.2-1.8.3-.5.5-.9.5-1.4.2-1.7.3-4.4.3-6.1s-.8-4.2.1-4.4c4.6,2.9,11.5,1.5,15.5,5.2.4.3,1.9,2.3,2.1,2.7.4.9.6,6.4.2,7.2-.5,1.1-3.3,1.8-4.5,1.6Z"/>
  <path class="st2" d="M34.9,2.5l-.3,12.4c-.3.3-8.2-.2-9.6,0s-.9.5-1.3.5c-.8.1-1.7,0-2.6,0V4.2c.9-.2,1.7-1,2.6-1.1,3.3-.5,7.8-.5,11.2-.5Z"/>
  <path class="st2" d="M35.1,2.5c4.2,0,8.3.3,12.4.8v12.4c-1.4-.3-4.4,0-6.1-.3s-1-.5-1.6-.6-4.3.2-4.5,0l-.3-12.4Z"/>
  <path class="st2" d="M5.4,24c-.3,0-1.1-.4-1.3-.7-.8-1.1-.8-10.1-.2-11.3.9-1.8,4.3-2,6.2-2.4s1.7-1,3-.7v9.1c0,.8.8,1.8,1.6,2-2.5,1.5-6.1,4-9.2,4Z"/>
  <path class="st4" d="M48.6,4.1c.6-.2.9-.3,1.6,0,.7.2,6.2,3,6.6,3.4.9,3.6.4,7.3.2,11-3-.7-5.8-2-8.4-3.6V4.1Z"/>
  <path class="st4" d="M20,15.1c-.2,1.1-4.2,2.4-5,3.6-.7,0-1-5.7-1-6.5,0-1.8.5-4.9,2-6.1s4-2.4,4-1.3v10.3Z"/>
  <path class="st6" d="M69.2,31.1c-.1,4.2-6,5.4-8.4,2-1.6-2.2.6-2.6,1.4-4.4,3-.9,4.5-.7,6.6,1.6.3.3.3.7.4.8Z"/>
  <path class="st6" d="M18.7,28.7c.4.8,1.6,1.4,2,2.2,1,2.2-2.2,4.2-4.2,4.2s-4.9-2.1-4-4.2,1.6-1.2,1.7-2.2c2.3-.7,2.3-.6,4.6,0Z"/>
  <path class="st0" d="M14.1,28.7c-.1,1-1.3,1.3-1.7,2.2-.9,2.1,2.1,4.1,4,4.2s5.2-2,4.2-4.2-1.6-1.4-2-2.2c0,0,.2-.3.5-.2,1.5.5,2.9,2.6,2.6,4.1-.9,4.8-9.7,4.8-10.6,0s1-3.5,2.4-4.1c.4-.1.4,0,.4,0Z"/>
  <path class="st0" d="M62.1,28.7c-.7,1.8-2.9,2.1-1.4,4.4,2.4,3.4,8.2,2.2,8.4-2,.4.6,1.1.5.8,1.4-.9.3-.2.5-.3.9s-.8.7-.9.9.2.3-.2.7c-2.5,2.2-7.5,1.6-8.9-1.5-.8-1.8.3-4.1,2.1-4.8.3-.1.4,0,.4,0Z"/>
  <path class="st1" d="M3,25c.4-.5,5.5,2.7,2,2.9-2.4.2-2.1-1-2-2.9Z"/>
  <path class="st7" d="M76.2,27.9c-1.4.3-2.4-.5-3-1.7l3-.9v2.6Z"/>
  <path class="st3" d="M27.5,17.7h17.4c1.4,1.1,6.8,2.4,5.8,4.8s-1.1.7-1.7.7c-7.1.6-15.2-.4-22.4,0-1.4,0-1.2-2.8-1-3.8s.9-1.6,1.8-1.7ZM49.5,21.8c-1.4-1.5-3.6-2.6-5.6-3.2h-16.4s-.7,3.2-.7,3.2h22.7Z"/>
  <path class="st3" d="M24.6,22.5c-.3.9-4.6.8-5.5.7s-1.2-.8-1.3-1.4c0-.9,3-3,3.8-3.4s2.1-.7,2.9.2v4ZM23.5,21.8c0-.6.2-2.8-.4-2.9-1.1.6-4,1.5-3.4,2.9h3.8Z"/>
  <path d="M28.6,25.3c.5-.2,3.5-.3,3.3.6s-5.6,0-3.3-.6Z"/>
  <path class="st4" d="M49.5,21.8h-22.7l.7-3.2h16.4c2,.6,4.2,1.7,5.6,3.2Z"/>
  <path class="st4" d="M23.5,21.8h-3.8c-.6-1.4,2.2-2.3,3.4-2.9.6,0,.3,2.3.4,2.9Z"/>
</svg>