<?xml version="1.0" encoding="UTF-8"?>
<svg id="a" data-name="Layer 1" xmlns="http://www.w3.org/2000/svg" width="22.027" height="21.84" viewBox="0 0 22.027 21.84">
  <path d="M.128,7.439C-.039,6.394-.05,2.56.14,1.562.699-1.376,4.147.433,4.682,2.535c2.119.19,2.109-1.785,3.527-2.069.836-.167,4.369-.161,5.217.002,1.423.273,1.196,1.655,3.498,1.765,2.358.112,1.092-.554,1.927-1.579.825-1.014,3.093-.723,3.093.024v7.634l-2.184-.002.019,4.785,1.748.207c.784.529.658,7.607-.439,8.332l-19.438.206-.884-.432c-.216-.253-.106-.697-.201-.881-.036-.326.421-.742.436-.873,2.559,2.299,2.589-3.916,1.986-4.829-.416-.543-1.06-.3-1.549-.406-.193-.041-.366-.247-.436-.436.829-.569.884-.372,1.745-.436.288-.021.584.028.872.003l-.002-6.109H.128ZM2.744.893C-.092-.417.027,6.103,1.27,6.515l1.473.053V.893ZM21.005,6.502l.438-4.891-2.117-.717v5.675s1.678-.067,1.678-.067ZM14.089,2.2c-1.072-1.458-5.162-1.195-6.542-.212,2.247.293,4.301-.631,6.542.212ZM10.438,2.255c-1.298.431-.571,4.546-.649,5.776,3.845,2.796,3.051-2.502,2.93-5.11-.276-.85-1.525-.917-2.281-.666ZM8.851,3.079c-1.57-.062-3.807-.377-3.92,1.743,1.24-.893,3.882.368,3.92-1.743ZM17.146,3.078h-3.931v1.305h3.931v-1.305ZM5.799,5.258c-.586.319-.735.336-.868,1.087-.415,2.346-.083,7.605-.005,10.256.03,1.015-.027,2.042.002,3.056l1.305-.005c.002-.901-.364-1.721-.434-2.615l1.744-.442c-.164-.807-1.039-.905-1.744-.867-.066-3.044.374-6.717,0-9.598l3.058-.222c-.03-1.583-2.314-1.056-3.058-.65ZM15.834,15.728c-.063.476-1.311,1.51.436,1.309.013.289,0,.583,0,.873-.291,0-.582,0-.873,0-1.989.003-3.081.941-4.588.924-1.559-.017-2.507-1.317-4.137-.926l.253,2.232c.711.508,6.315.579,7.393.381.886-.163,1.014-.845,1.079-.867.23-.077.636.076.873,0,.218-.07.597.057.872.003-.462-4.035.636-9.436-.017-13.29-.088-.516-.259-1.033-.849-1.109-.06,3.565.035,6.872-.441,10.47ZM15.398,6.567l-2.184-.002c.091,1.284-.272,2.68.235,3.914.206.501,1.063.936,1.321,1.733.281.869-.177,2.45.628,2.644V6.567ZM7.981,11.802c.893-1.449,1.025-3.125.874-4.8h-2.185s.007,6.107.007,6.107c.798.139.227-.789.535-1.205.18-.243.747-.065.769-.101-1.174,4.082.005,6.52,4.583,5.67,3.576-.664,1.351-9.948-3.272-6.322l3.396.312c2.451,3.525.189,5.867-3.658,4.308-.808-.858-.976-2.158-.176-3.096.075.387-.055.888.004,1.308,1.806-1.159,2.568-.619,4.356-.002-.121-2.486-2.922-2.993-4.361-1.307-.144-.745.379-1.023-.873-.873ZM12.78,9.188c-.923.242-3.414-.753-3.052.866l3.052-.866ZM21.009,19.591c2.259-7.855-3.259-7.134-1.637.012l1.637-.012Z" fill="#1a1816"/>
  <path d="M.128,7.439h3.487s.002,6.11.002,6.11c-.288.025-.584-.024-.872-.003l-.021-4.343c-1.505.015-2.343-.172-2.597-1.764Z" fill="#363232"/>
  <path d="M10.438,2.255c.756-.251,2.004-.184,2.281.666.121,2.608.916,7.906-2.93,5.11.078-1.23-.648-5.344.649-5.776Z" fill="#beab77"/>
  <path d="M15.398,17.909v1.745c-.066.022-.193.704-1.079.867-1.078.198-6.681.127-7.393-.381l-.253-2.232c1.63-.392,2.578.908,4.137.926,1.507.017,2.599-.921,4.588-.924Z" fill="#9c876e"/>
  <path d="M7.981,11.802c1.252-.151.729.127.873.873-.8.937-.631,2.238.176,3.096,3.847,1.559,6.109-.783,3.658-4.308l-3.396-.312c4.623-3.625,6.849,5.659,3.272,6.322-4.578.85-5.757-1.588-4.583-5.67Z" fill="#7a7c7c"/>
  <path d="M15.834,15.728c.476-3.598.381-6.905.441-10.47.591.076.762.593.849,1.109.654,3.854-.444,9.255.017,13.29-.274.054-.654-.073-.872-.003,0-.582,0-1.163,0-1.745,0-.29.013-.583,0-.873-.021-.479.135-1.094-.436-1.309Z" fill="#beab77"/>
  <path d="M21.009,19.591l-1.637.012c-1.623-7.146,3.896-7.867,1.637-.012Z" fill="#9c876e"/>
  <path d="M15.398,6.567v8.289c-.805-.194-.347-1.775-.628-2.644-.258-.797-1.115-1.231-1.321-1.733-.506-1.234-.143-2.63-.235-3.914l2.184.002Z" fill="#635a52"/>
  <path d="M2.744.893v5.675s-1.473-.053-1.473-.053C.027,6.103-.092-.417,2.744.893Z" fill="#9c876e"/>
  <polygon points="21.005 6.502 19.327 6.569 19.327 .894 21.444 1.611 21.005 6.502" fill="#9c876e"/>
  <path d="M1.436,14.419c.489.105,1.133-.137,1.549.406.604.913.573,7.129-1.986,4.829.195-1.711-.433-3.639.436-5.235Z" fill="#9c876e"/>
  <path d="M7.981,11.802c-.022.036-.59-.142-.769.101-.308.416.263,1.344-.535,1.205l-.007-6.108h2.185c.151,1.676.019,3.352-.874,4.801Z" fill="#635a52"/>
  <path d="M5.799,6.13c.374,2.881-.066,6.554,0,9.598.006.291-.009.582,0,.873h-.873c-.078-2.65-.41-7.91.005-10.256.133-.751.282-.768.868-1.087.025.286-.037.59,0,.873Z" fill="#beab77"/>
  <path d="M8.854,12.674c1.439-1.686,4.24-1.179,4.361,1.307-1.788-.617-2.551-1.157-4.356.002-.059-.42.071-.921-.004-1.308Z" fill="#635a52"/>
  <rect x="13.214" y="3.078" width="3.931" height="1.305" fill="#beab77"/>
  <path d="M8.851,3.079c-.038,2.11-2.681.85-3.92,1.743.114-2.12,2.35-1.804,3.92-1.743Z" fill="#beab77"/>
  <path d="M14.089,2.2c-2.241-.843-4.295.082-6.542-.212,1.381-.983,5.47-1.247,6.542.212Z" fill="#9c876e"/>
  <path d="M5.799,5.258c.744-.406,3.028-.933,3.058.65l-3.058.222c-.037-.282.025-.587,0-.873Z" fill="#363232"/>
  <path d="M5.799,16.6c.005.145-.011.292,0,.436.07.894.436,1.714.434,2.615l-1.305.005c-.029-1.015.028-2.041-.002-3.056h.873Z" fill="#7a7c7c"/>
  <path d="M12.78,9.188l-3.052.866c-.362-1.619,2.129-.624,3.052-.866Z" fill="#635a52"/>
  <path d="M5.799,15.728c.705-.038,1.58.06,1.744.867l-1.744.442c-.011-.144.005-.291,0-.436-.009-.29.006-.582,0-.873Z" fill="#26241c"/>
  <path d="M16.271,17.909c0,.582,0,1.163,0,1.745-.236.076-.642-.077-.873,0v-1.745c.291,0,.582,0,.873,0Z" fill="#26241c"/>
  <path d="M16.271,17.037c-1.748.201-.499-.833-.436-1.309.571.215.415.83.436,1.309Z" fill="#26241c"/>
</svg>