<?xml version="1.0" encoding="UTF-8"?>
<svg id="Layer_1" xmlns="http://www.w3.org/2000/svg" width="58" height="39.6" version="1.1" viewBox="0 0 58 39.6">
  <!-- Generator: Adobe Illustrator 29.2.1, SVG Export Plug-In . SVG Version: 2.1.0 Build 116)  -->
  <defs>
    <style>
      .st0 {
        fill: #b5a876;
      }

      .st1 {
        fill: #363020;
      }

      .st2 {
        fill: #fceba4;
      }

      .st3 {
        fill: #d5bf7e;
      }

      .st4 {
        fill: #fce081;
      }
    </style>
  </defs>
  <path class="st1" d="M13.6,7.6c-.1-.1-.9,0-1.4-.5s-.7-1.6-.8-1.6c.2.2,1,.1,1.6.8s.4,1.3.5,1.4Z"/>
  <path class="st1" d="M4.6,7.6c.9-2.1.9-1.8,2-3.3.3-.5,0-1.3.3-1.8S10.7.4,11.4.3c3.8-.7,8.2-.3,11.4,2,.5.3.3,1,.4,1.1.2.2,1.5.1,1.6,1.1-2.4-.8-1.2-.8-1.6-1.1s-1.3,0-2-.3-2.4-1.7-2.6-1.8c-3.3-.7-9.1-.1-11.2,2.9,1,.7,2.8,0,3.9.2s.3,1,.3,1.1c-.1,0-.7,0-1.1,0-.9,0-2.6-.1-3.3,0s-1.2,1.3-2.5,2c-.8,1.8-.8,3.7-3.2,3.7l3.2.5-.5,2.1h-1.6s.8,3.7.8,3.7c3.6.6,4.2-.4,6.7-1.7s2.1-.7,2.5-.9,1-1,1.1-1.1c.2-.3-.3-1.7,1.1-2.1,0,.7,0,1.4,0,2.1h-1.1c.3,1.2-1,1-1.1,1.1,0,.1,0,.7,0,1.1-2,.7-4,3.4-2.6,5.8l1.6-.5v4.7s1.9-1.1,1.9-1.1c1.3,2.7,2.8,0,2.4-2.1,1.8,0,2.8-.1,2.6-2.1l1,.5v-2.6c1.1,0,.2,1.3.6,2s1.5.5,1.7,1.2c.3-1.4,1.9-2.3,2.3-2.8s-.4-1.4,0-2.1c.9-1.4,2.2-.5,1.1-4.1l1.1.3c-1-2.3,1.3-2.5,1.5-3.2.6-2.1-1.5-2.2-1.5-2.3s-.5-1.9-1.1-2.6c3.8,1.6,2.2,4.6,6.6,5.8,6.4,1.7,11.9-2.7,18.4,1.7,5.8,3.9,2.9,8.6,3.5,14.7.6.6,3.3-1.8,4.2,2.9.3,1.3-2.1.3-2.6,0-2-1.2-3.2-4.1-3.2-6.3s1.2-3.1-.4-6.5c-.3-.7.3-1.4-1.2-1.2.4,6,1.8,12.6.5,18.4l5.8,1.6c.9,1-2.4,2-2.9,2.1-10.5,1.9-27.7,1.7-38.5,1.1-1.9-.1-12.2-1.4-12.9-2.1-.3-1.2.1-.8.7-1.2,2.5-1.5,6-1.5,8.8-1.4-.5-2.8.6-1.7,1.6-2.5s1.9-2.1,2.1-3.1c.3-1.4-.9-.2-1.7-.8s-.3-1-.7-1.1c-.7-.2-2.7.2-2.8,0s.2-1.2,0-1.7-.8-.5-1-.8c-1.9-4.2-.9-6-7-6.2L0,12.1c1-1.8,2.9-3.5,4.6-4.6ZM31,11.8c-.4-.1-1.4-1.6-2.6-1.1-.3,1.6-.7,3.7-1.4,5.2s-2.4,3.2-3.3,4.6-.5,2.3-.6,2.3c-.4.4-3.5-1.8-4.8,1.3-1,2.3-.2,2.1,0,3.5.3,2.1.8,3.8-.5,5.8s-2.3,1.4-2.6,2.6c1.8,0,2.2,1.6,4.4,1.4s2.2-3.3,2.7-4.6,1.8-3.1,1.9-4c.2-1.7-1.5-3.7.3-5,2.8,1.8,6.6,2.5,10,2.1,1-.1,1.9-.8,2.9-1,0,.2.2.6,0,1-1.8,2.3-9.4.7-12.1.1.6,3-1.3,4.8-2.1,7.4h15.3c0,0-.2-.7.4-1.1s1.3-.2,1.6-.6c1.6-1.8,0-5.4-1.4-7-.4-.2-1.1.2-1.6.3.4-.8.8-1.4,1.1-2.3s0-1.7,1-.8.6,1.6,1.6,2.4c1.4,1.1,3.7,2.1,4.9,3.4s-.1,2,1.4,1.6c0,1.2.1,2.6-.2,3.7-.6,1.7-3.1,1.7-2.4,4.2l.8-1.1.3,1.1h1.1s.3-1.1.3-1.1l.6,1.1h1.8c1.2-3.6,1.2-6.6,1.1-10.3-.1-3.2-.6-8.5-1.1-11.6-.1-.8-1.8-3.1-2.5-3.4-3.8-1.6-11.2,1.2-16,0Z"/>
  <path class="st1" d="M13.6,7.6c.6.5.9-1.1,1.1,1.6-.9-.8-1-1.5-1.1-1.6Z"/>
  <path class="st1" d="M14.7,9.2c.1,0,.8,0,1.3.5s.6,2,.8,2.9c-.3,2.1-.7-1.2-2.1-.8,0-.9,0-1.8,0-2.6Z"/>
  <path class="st3" d="M11.5,5.5c0,0,.2,1,.8,1.6s1.2.4,1.4.5.2.7,1.1,1.6c0,.8,0,1.8,0,2.6-1.4.5-.8,1.8-1.1,2.1s-1,1-1.1,1.1c-.4.2-1.7.5-2.5.9-2.5,1.4-3.1,2.3-6.7,1.7l-.8-3.7h1.6c1.3,3.9,4.1.5,5.6-.5.7-.5,1.7-.3,2.3-1,2.7-2.6-1.5-4.2-1.6-7,.3,0,.9,0,1.1,0Z"/>
  <path class="st3" d="M11.5,5.5c0,0,.2-.9-.3-1.1-1.1-.3-2.9.4-3.9-.2,2.1-3,8-3.6,11.2-2.9s1.6,1.3,2.6,1.8,1.9.3,2,.3c.4.2-.8.2,1.6,1.1s.4.3.5.5c.5.7,1,2.5,1.1,2.6l-2.1,1.1,1.1,3.2h-1.5c0,0-.6,2.4-.6,2.4l-2.1-.3c-.2.1,2,1.9.8,3.7s-1.6-1.5-2.6-1.1l-1.9,4.2-2.4-2.6-.3,1.6h-2.1c0-1.2-.1-2.5,0-3.7,1.7-.6,1.8.6,2.1-2.1,0-.7,0-1.4,0-2.1,1.4-.5,1.9,2.9,2.1.8-.2-.9-.3-2.2-.8-2.9s-1.2-.4-1.3-.5c-.2-2.7-.5-1.1-1.1-1.6s0-.9-.5-1.4-1.4-.6-1.6-.8ZM17.8,9.7c0-1.1,1.3-1.7,1.5-2.5,1.4-4.4-5.6-3.9-5.1-1.5l3.6,4Z"/>
  <path class="st4" d="M31,11.8c4.7,1.3,12.1-1.5,16,0s2.4,2.6,2.5,3.4c.5,3.1.9,8.4,1.1,11.6.2,3.7,0,6.7-1.1,10.3h-1.8s-.6-1-.6-1l-.3,1.1h-1.1s-.3-1.1-.3-1.1l-.8,1.1c-.7-2.5,1.8-2.5,2.4-4.2s.3-2.6.2-3.7c-.1-2.9-1.6-3.1-3.5-4.9-.8-.7-.4-.7-2-1.9-.8-.6-1.3-1.6-2.4-1.9-3.9-1.2-4.4,2.1-6.7,2.4s-3.6-.8-3.8-1.1c-.6-1,.8-2.8,1-3.9s-.3-3.3,0-4.6,1.4-.4,1-1.4Z"/>
  <path class="st3" d="M31,11.8c.4,1.1-1,1-1,1.4-.3,1.3.2,3.1,0,4.6s-1.6,2.9-1,3.9,3.1,1.2,3.8,1.1c2.3-.3,2.8-3.6,6.7-2.4,1,.3,1.6,1.3,2.4,1.9,1.6,1.2,1.2,1.2,2,1.9,1.9,1.9,3.4,2,3.5,4.9-1.5.3-.8-.9-1.4-1.6-1.3-1.3-3.6-2.2-4.9-3.4-1-.8-1.5-2.3-1.6-2.4-1-.9-.9.3-1,.8-.3.9-.7,1.5-1.1,2.3-1.1.2-2,.9-2.9,1-3.3.5-7.2-.3-10-2.1-1.8,1.3,0,3.3-.3,5s-1.4,2.8-1.9,4-.1,4.4-2.7,4.6-2.7-1.4-4.4-1.4c.4-1.3,2-1.7,2.6-2.6l3.2.5,1-7.8c-2-1.1-2.9-.6-3.6,1.5-.2-1.4-1-1.2,0-3.5,1.3-3,4.4-.9,4.8-1.3s0-1.6.6-2.3c.9-1.3,2.6-2.9,3.3-4.6s1.1-3.6,1.4-5.2c1.2-.5,2.2.9,2.6,1.1Z"/>
  <path class="st0" d="M26.3,7.6c0,.1,2.2.3,1.5,2.3-.2.7-2.5.9-1.5,3.2l-1.1-.3c1.1,3.6-.2,2.7-1.1,4.1s.2,1.8,0,2.1-2,1.4-2.3,2.8c-.3-.6-1.6-.9-1.7-1.2-.4-.7.4-2.1-.6-2v2.6s-1.1-.5-1.1-.5c.1,2-.8,2.2-2.6,2.1.5,2.1-1.1,4.8-2.4,2.1l-1.8,1.1v-4.7s-1.6.5-1.6.5c-1.4-2.4.6-5.1,2.6-5.8,0-.3,0-.9,0-1.1s1.3.1,1.1-1.1h1.1c-.3,2.7-.4,1.5-2.1,2.1-.1,1.2,0,2.5,0,3.7h2.1s.3-1.6.3-1.6l2.4,2.6,1.9-4.2c1.1-.4,1.4,3,2.6,1.1s-1-3.6-.8-3.7l2.1.3.6-2.4h1.5c0,0-1.1-3.2-1.1-3.2l2.1-1.1Z"/>
  <path class="st2" d="M10.4,5.5c0,2.8,4.3,4.5,1.6,7s-1.6.5-2.3,1c-1.5,1-4.3,4.4-5.6.5l.5-2.1-3.2-.5c2.4,0,2.4-1.9,3.2-3.7,1.2-.7,1.8-1.8,2.5-2s2.5-.2,3.3,0Z"/>
  <path class="st2" d="M18.4,27.6c.7-2.1,1.6-2.6,3.6-1.5l-1,7.8-3.2-.5c1.3-2,.8-3.7.5-5.8Z"/>
  <path class="st1" d="M17.8,9.7l-3.6-4c-.4-2.4,6.5-2.9,5.1,1.5s-1.6,1.4-1.5,2.5Z"/>
</svg>