<svg id="a" xmlns="http://www.w3.org/2000/svg" width="74.751" height="100.735" version="1.1" viewBox="0 0 74.751 100.735">
  
  <ellipse cx="36.85" cy="79.483" rx="27.542" ry="19.881" fill="#544c4c" opacity=".2"/>
  <g>
    <path d="M48.89,56.31c.88,1.27.33,1.22-1.01,1.55-.83.19-1.37.87-2.02,1.36-.09.07-.18.14-.28.2-2.37.79-5.74,1.45-6.59,1.18-1.29-.45-.18-2.38.3-3.4.44-.7.72-1.69,1.39-2.04.24-.09.55,0,.8.07.71.22,1.5.26,2.32.25,1.81-.02,3.72-.28,4.98.72l.11.11Z" fill="#bdaaaa"/>
    <path d="M26.26,52.88c-.01.5.02,3.87,0,4.97l-.03.04c-1.43.63-4.01-2.08-5.22-3.04-.27-.24-.43-.35-.14-.43,1.38-.19,4.95.81,5.36-1.42.03-.13.03-.18.03-.12Z" fill="#bdaaaa"/>
    <path d="M51.58,59.27c.12,1.19-1.45,1.42-2.28,2.03l-.19.11c-2.22,1.54-4.22,1.5-6.6,1.89-1.37.19-1.99,1.38-3.2,1.52-.22.04-.45.03-.7-.02-.45-.1-.78-.42-.83-.68-.22-2.37,3.58-.92,5.09-2.01.8-.87,2.04-1.29,3.33-1.62,1.02-.28,2.08-.49,2.98-.82.82-.24,1.1-.95,1.68-1.21.43.02.63.49.72.81Z" fill="#e5cece"/>
    <path d="M26.27,60.51c.08.5.3,1.9-.44,1.68-3.19-.94-7.32-4.6-9.36-7.28-.41-.64.43-.52,1.13-.31,2.19.75,3.41,3.17,5.57,3.93l.12.07c.51.33.82,1.18,1.55,1.4.43.2,1.31.05,1.43.51Z" fill="#e5cece"/>
    <path d="M27.23,67.59c.31.31.46.56.27.66-.81.19-3.57-.81-4.75-1.26-3.37-1.34-13.03-12.23-8.12-10.58l.12.09c2.68,4.15,10,6.19,11.4,9.64.24.55.65,1.03,1.08,1.45Z" fill="#e5cece"/>
    <path d="M55.52,63.36c.13,1.08-1.45,2.16-3.38,3.07-2.4,1.13-5.34,1.99-6.3,2.25-3.09.03-5.69,1.54-8.63,1.41-.83-.12-1.2-.83-1.04-1.58.32-1.73,1.62-2.43,3.32-2.74,2.32-.41,5.36-.08,7.63-.66,1.22-.32,2.1-1.15,3.25-1.64,1.38-.7,3.92-1.08,5.08-.19l.07.08Z" fill="#e5cece"/>
    <path d="M56.77,66.8c.45,6.06.49,15.54-4.52,19.77-6.01,4.46-15.88,6.51-23.66,4.1-3.75-1.17-7.02-3.38-9.14-6.86-2.42-5.91-1.96-12.49-3.46-18.68-.29-1.35-.23-1.85.93-.66,2.48,2.47,6.59,4.62,9.34,5.9,1.66.8,1.47,2.48,1.87,4.25.4,1.84.65,3.21,2.76,3.1,2.39.02,4.15.47,4.32-2.33.55-5.66,9.28-1.86,13.93-5.56l.14-.11c.92-.96,2.09-1.42,3.35-1.84.87-.3,1.78-.57,2.68-.97.46-.16,1.14-.63,1.46-.11Z" fill="#e5cece"/>
    <path d="M74.62,24.47c.02.26.01.53-.02.79-.61,4.58-6.21,5.19-9.49,8.25-.92.81-1.4,2.24-.08,2.93,1.55.77,3.55.87,4.99,1.95,2.4,1.74,3.96,4.56,4.52,7.36.22,1.26.36,2.66-.95,3.37-1.52.72-3.83.5-5.54.34-1.41-.2-1.22-.72-2.29-1.51-1.3-1.01-2.44-.59-2.43,1.16-.26,7.52,5.95,15.82,1.16,22.11-1.01,1.07-2.94.84-4.03,1.34-.67.33-1.05.89-1.28,1.64-.57,2.15-.54,7.17-3.14,10.71-1.66,2.49-3.7,4.32-6.28,5.59-6.7,3.13-14.68,3.84-21.63,1.55l.46-1.38c7.78,2.41,17.65.36,23.66-4.1,5.01-4.23,4.97-13.71,4.52-19.77-.32-.52-1-.05-1.46.11-.9.4-1.81.67-2.68.97l-.49-1.45c1.93-.91,3.51-1.99,3.38-3.07l-.07-.08c-1.16-.89-3.7-.51-5.08.19-1.15.49-2.03,1.32-3.25,1.64-2.27.58-5.31.25-7.63.66l-.18-.95c1.21-.14,1.83-1.33,3.2-1.52,2.38-.39,4.38-.35,6.6-1.89l.19-.11c.83-.61,2.4-.84,2.28-2.03-.09-.32-.29-.79-.72-.81-.58.26-.86.97-1.68,1.21-.9.33-1.96.54-2.98.82l-.34-1.27c.65-.49,1.19-1.17,2.02-1.36,1.34-.33,1.89-.28,1.01-1.55l-.11-.11c-1.26-1-3.17-.74-4.98-.72l-.03-1.81c.66,0,1.34-.24,1.96-.48,1.88-.74,2.78-1.1,2.71-2.88v-.18c.75-12.48,4.75-26.29,11.4-36.36.84-1.07.74-2.33-.77-2.47-1.37-.15-2.14,1.2-3.33,2.03-9.84,4.56-11.52,17.91-12.8,27.97-.09,1.36-.96,2.18-1.39,3.4l-1.5-.04c.78-2.28,1.04-4.9,1.15-7.08v-.17c-.52-6.4.15-13.83-.53-20.78l1.74-.05c.16,1.82.34,3.64.63,5.46.21,1.31.37,2.6,1.32.57.96-1.89,2.04-4.04,3.01-5.96.81-1.73,1.46-2.17,2.88-3.05,3.01-1.88,5.92-5.21,9.16-5.78,1.52-.35,2.63.98,3.06,2.27.97,2.01.05,4.03-.95,5.76-1.25,2.51,2.18,1,3.37,1.33,1.2.19,1.65,1.54,1.7,2.88-.04,1.22-.34,2.19.42,2.3,2.67-.12,7.18-2.07,7.61,2.11ZM71.33,47.39c1.35.04.98-1.27.63-2.17-1.1-2.71-4.1-5.41-6.43-6.77l-.14-.06c-.83-.34-2.18-.09-3.31-.38-.21-.04-.47-.07-.69-.05-.92.23-1.36,1.78-1.78,2.63-1.27,3.23,2.06,1.44,5.14,2.9.48.22.98.54,1.37.95.37.39.62.86.87,1.31.68,1.52,2.63,1.63,4.34,1.64ZM67.59,28.57c15.41-8.92-15.43-2.47-16.03,13.88.12,2.28-.89,4.54-.9,6.75.29,1.53,2.46.72,2.75-.46,1.23-4.05,3.11-7.98,5.52-11.82,1.47-2.49,3.14-4.43,5.3-6.14l.11-.1c.91-.97,2.02-1.32,3.25-2.11ZM62.03,22.39c1.92-1.98,3.2-4.18-1.21-1.16-2.48,1.86-5.95,4.91-4.67,6.44,2.99.8,4.54-3.26,5.78-5.16l.1-.12ZM60.77,68.79c4.45,6.08,4.09-8.69-1.41-14.93-1.14-1.1-2.6-2.28-4.13-2.5-.65,0-1.29.34-1.89.61-.95.55-4.81,1.19-3.62,2.34,1.95.85,3.49,2.12,4.64,4.05,1.08,1.81,2.39,3.24,3.69,4.75,1.14,1.72.64,4.7,2.61,5.59l.11.09ZM60.66,49.36c.13-.92.05-2.02-.88-2.36l-.06-.07c-.58-1.69-1.69-2.43-1.95.05-.13,1.63.46,3.9,2.35,3.7.67-.12.46-.74.54-1.32Z" fill="#010101"/>
    <path d="M52.14,66.43l.49,1.45c-1.26.42-2.43.88-3.35,1.84l-.14.11c-4.65,3.7-13.38-.1-13.93,5.56-.17,2.8-1.93,2.35-4.32,2.33-2.11.11-2.36-1.26-2.76-3.1-.4-1.77-.21-3.45-1.87-4.25-2.75-1.28-6.86-3.43-9.34-5.9-1.16-1.19-1.22-.69-.93.66,1.5,6.19,1.04,12.77,3.46,18.68,2.12,3.48,5.39,5.69,9.14,6.86l-.46,1.38c-4.18-1.37-7.98-3.84-10.9-7.52-3.86-4.88-1.14-11.6-3.21-17.06l-.04-.17c-.78-2.73-.28-6.7-2.2-9.07-.98-.87-2.16,1.32-3.25,2.74-.72.9-1.09,2.01-1.72,2.97-.98,1.41-3.23,1.81-4.8,1.43-2.71-.75-2.05-4.27-1.84-6.46,1.02-6.85,5.3-10.66,10.26-15.13.91-.78,2.46-1.57,1.47-2.8-.58-.78-1.53-1.57-2.22-2.38-6.41-7.17-7.08-23.64-1.34-20.14,1.76,1.07,2.49,2.94,3.62,4.63.91,1.37,2.08,2.8,3.33,4.12,1.47,1.55,4.07,4.15,2.85,1.04-2.19-5.71-7.46-13.45-5.7-19.15l1.76.39c-.13.41-.19.84-.13,1.2,3.71,11.17,10.02,21.72,10.95,33.74.18,1.83.11,4.95,1.52,6.14.93.44,1.79-1.19,2.62-1.59,1.07-.67,3.23-.81,4.02-1.97l.1-.14c.38-1.65.55-3.3.54-4.94l1.84-.05c.06,1.42.22,2.76.72,3.89.54,1.13,1.98,3.09,2.69,1.03.39-.66.71-1.38.98-2.14l1.5.04c-.06.18-.11.36-.15.55-.37,2.68-1.78,8.25,2.33,8.42h.04l.03,1.81c-.82.01-1.61-.03-2.32-.25-.25-.07-.56-.16-.8-.07-.67.35-.95,1.34-1.39,2.04-.48,1.02-1.59,2.95-.3,3.4.85.27,4.22-.39,6.59-1.18.1-.06.19-.13.28-.2l.34,1.27c-1.29.33-2.53.75-3.33,1.62-1.51,1.09-5.31-.36-5.09,2.01.05.26.38.58.83.68.25.05.48.06.7.02l.18.95c-1.7.31-3,1.01-3.32,2.74-.16.75.21,1.46,1.04,1.58,2.94.13,5.54-1.38,8.63-1.41.96-.26,3.9-1.12,6.3-2.25ZM38.1,53.67c.62-1.99-.67-4.11-2.93-4.21l-.2-.01c-11.66.9-5.49,17.11-4.09,24.6,1.85,5.83,3.06-3.98,3.1-6.19.02-1.29.57-2.38,1.12-3.51.98-2.26.56-5.41,1.25-7.49.41-1.14,1.42-2.02,1.75-3.19ZM27.5,68.25c.19-.1.04-.35-.27-.66-.43-.42-.84-.9-1.08-1.45-1.4-3.45-8.72-5.49-11.4-9.64l-.12-.09c-4.91-1.65,4.75,9.24,8.12,10.58,1.18.45,3.94,1.45,4.75,1.26ZM25.83,62.19c.74.22.52-1.18.44-1.68-.12-.46-1-.31-1.43-.51-.73-.22-1.04-1.07-1.55-1.4l-.12-.07c-2.16-.76-3.38-3.18-5.57-3.93-.7-.21-1.54-.33-1.13.31,2.04,2.68,6.17,6.34,9.36,7.28ZM26.26,57.85c.02-1.1-.01-4.47,0-4.97,0-.06,0-.01-.03.12-.41,2.23-3.98,1.23-5.36,1.42-.29.08-.13.19.14.43,1.21.96,3.79,3.67,5.22,3.04l.03-.04ZM23.7,51.66c.51-2.38-1.3-5.09-3.33-6.27l-.17-.1C11.79,40.55.72,54.36,2.84,62.98c.36.23,1.12-.66,1.45-1.09,5.33-6.84,7.06-10.13,16.5-9.86.93-.06,2.25.36,2.91-.37ZM19.97,42.87c2.31.34,2.64-1.26,2.29-3.17l-.04-.17c-1.8-5.02-8.62-8.85-11.49-13.76-.56-.96-3.19-4.81-4.3-3.46-.4.72-.34,2.65-.22,4.64.1,1.11.62,2.09,1.37,2.87,4.62,4.94,5.31,12.36,12.39,13.05Z" fill="#010101"/>
    <path d="M42.41,16.58l-1.74.05c-.47-4.76-1.58-9.3-4.15-13.15-1.54-2.06-1.53.95-1.59,2.53-.09,5.58,1.22,15.49-.52,18.67-.61,1.2-.87,2.61-.82,4.01-.04,2.37,1.35,4.03,1.77,6.26.44,2.02.21,4.57.3,6.93l-1.84.05c-.04-12.06-9.66-23.71-16.94-33.01-.46-.6-1.25-1.23-1.9-.67-.33.26-.61.73-.78,1.24l-1.76-.39c.24-.79.62-1.54,1.17-2.24.72-.96,1.89-1.8,3.07-1.22,4.6,2.91,10.07,10.74,13.06,15.19.63.95.76,3.21,1.97,3.23,1.83-1,1.3-3.64,1.37-5.53-.15-5.98-2.49-24.68,6.21-16.39.61.72,1.1,1.55,1.35,2.46,1.11,4,1.4,7.98,1.77,11.98Z" fill="#010101"/>
  </g>
  <path d="M23.761,37.276c-1.062-3.472-1.994-6.212-3.487-10.373-1.997-5.565-6.909-12.924-5.357-18.265.449-1.537,1.461-.69,2.145.276,8.128,10.338,17.968,23.151,16.619,36.642-.071.908-.351,1.366-1.116.865-1.484-1.006-4.388-1.154-5.664-2.687-1.547-1.84-.857-4.537-2.539-6.296l-.601-.161Z" fill="#e5cece"/>
  <path d="M36.14,41.373c-.115-.362-.531.196-.523-.262.124-3.675-2.309-10.508-2.266-13.947-.121-1.819.978-2.576,1.22-4.359.206-3.897.171-13.353.57-17.866.117-1.223.247-2.154.705-2.028,5.66,4.005,9.185,44.054.381,42.21l-.087-3.748Z" fill="#e5cece"/>
  <path d="M13.02,37.651c-2.075-2.446-3.719-6.099-6.209-8.438-.535-.583-.785-1.305-.832-2.097-.097-1.688-.366-4.124.519-5.046.631-.656,2.496,1.076,2.88,1.695,3.581,5.577,9.343,9.434,12.579,14.76.159.304.223.578.133.782-.134.291-.504.387-.841.419-1.675.102-3.2-.541-4.745-1.061-1.006-.422-2.399-.484-3.342-.928l-.143-.085Z" fill="#e5cece"/>
  <path d="M19.869,45.429c-.002.327-.506.677-.815.906-3.817,2.892-6.626,5.795-9.937,9.421-1.402,2.177-3.07,4.997-5.066,6.573-.598.609-1.359,1.476-1.592.059-1.147-8.215,9.414-21.579,17.554-17.092l-.144.133Z" fill="#e5cece"/>
  <path d="M35.53,49.48c2.311,5.664-2.586,14.371-5.023,19.937-.366.71-.559.394-.7-.176-1.708-6.403-5.195-19.753,4.154-19.586l1.569-.174Z" fill="#e5cece"/>
  <path d="M51.615,44.216c-.925-9.46,9.668-18.902,18.928-19.687.453-.049,1.318-.065,1.455.282.255.496-.989,1.653-1.945,2.423-1.297,1.03-2.803,1.864-4.352,2.468-1.433.529-2.782.882-3.867,1.892-3.47,3.22-6.001,7.801-9.18,11.804-.242.3-1.508,3.093-1.781,3.031l.743-2.213Z" fill="#e5cece"/>
  <path d="M35.636,49.628c.859-.464,2.564,1.146,2.634,2.31.487,1.917-1.23,3.281-1.929,4.866-.547,1.697-.358,4.195-.821,6.231-.192,1.233-.946,2.151-1.325,3.294-.428,2.63-.564,6.574-1.492,8.527-.274.664-.577,1.074-.89,1.077-.223.004-.453-.204-.681-.666-.626-1.509-1.118-3.352-.959-5.052,2.14-6.186,6.13-12.488,5.262-19.014-.052-.47-.167-1.224.121-1.505l.081-.067Z" fill="#bdaaaa"/>
  <path d="M52.964,52.357c3.488-3.51,8.71,4.318,10.025,6.276,1.34,2.539,1.569,11.768-.392,11.549-1.001-.112-2.708-.679-2.572-1.785.716-6.423-1.317-10.654-5.644-14.926-.323-.328-.778-.777-.803-1.186l-.613.072Z" fill="#e5cece"/>
  <path d="M65.528,38.453c2.578,1.489,6.421,5.029,6.763,8.04.138,1.497-2.511.77-3.427.67-1.12-.215-1.734-.991-2.19-1.971-.406-.746-1.17-1.363-1.92-1.702-3.087-1.457-6.419.331-5.141-2.904.417-.847.855-2.396,1.777-2.622.311-.057.686.049,1.078.123.914.162,2.167,0,2.92.308l.141.058Z" fill="#e5cece"/>
  <path d="M53.469,52.387c4.727,4.442,8.424,8.46,7.226,15.452-.31,1.093-.907.355-1.226-.371-.755-1.677-1.268-4.094-3.803-6.568-1.449-1.295-2.124-4.319-3.765-5.374-.76-.695-2.852-1.518-2.25-2.297.699-.541,2.766-1.097,3.671-.899l.147.058Z" fill="#bdaaaa"/>
  <path d="M20.343,45.558c2.373.901,3.152,3.181,3.67,5.608.143.621-.049,1.203-.79,1.162-4.016-.162-10.358.204-13.932,3.342-.536.471,3.746-4.585,4.067-4.96,2.166-1.834,4.384-3.779,6.822-5.154l.163.002Z" fill="#bdaaaa"/>
  <path d="M24.142,37.26c.819-.313,1.378,1.363,1.419,2.18.24,6.453,4.59,4.381,7.679,6.906.262.351.198.729-.131,1.024-1.016.917-2.932,1.075-3.943,1.85-.669.536-1.606,2.058-2.683,1.566-1.493-1.596-1.447-4.501-1.872-6.573-.236-1.921-.381-3.895-.621-5.923-.026-.284-.068-.763.083-.956l.069-.074Z" fill="#bdaaaa"/>
  <path d="M65.255,29.78c-5.23,7.235-10.446,12.341-11.773,19.074-.087.308-.21.587-.391.802-.412.536-1.243.619-1.846.364-2.921-1.597,2.57-7.92,3.588-9.498,2.403-3.922,5.378-9.142,9.463-10.742h.959Z" fill="#bdaaaa"/>
  <path d="M42.678,42.332c.241.703.741,3.14,1.42,3.826,1.621,2.105,4.521,3.785,4.315,5.776-.339.562-.732.515-1.202,1.121-.164.144-1.26.072-1.433.205-.993.539-3.054.284-3.961-.129-.176-.111,1.035.534-.358-.452-2.244-1.588-1.405-8.841.783-9.911l.436-.436Z" fill="#bdaaaa"/>
  <path d="M41.177,37.276c.06.074.072.19.061.337-.268,2.005-.478,5.242-1.272,7.193-.816,2.006-.689,1.528-1.144,1.97-.215.208-.057.636-.151.918-2.867-.387-2.674-4.047-2.981-6.329-.099-1.045,1.372-.649,1.862-1.178,1.136-.951,1.644-3.198,3.553-2.972l.074.061Z" fill="#bdaaaa"/>
  <path d="M12.255,36.318c1.484-.057,4.303,1.656,5.405,2.876,1.199.604,3.393-.279,4.533.263,1.016.405.468,2.077.221,3.009-.51.613-1.638.434-2.313.477-3.338-.04-5.659-1.597-7.155-5.056l-.69-1.569Z" fill="#bdaaaa"/>
  <path d="M61.934,22.512c-1.15,1.693-2.13,4.593-4.47,5.18-.614.15-1.345.247-1.562-.34-.866-2.918,10.378-10.398,7.452-6.518-.398.534-.886,1.05-1.322,1.553l-.097.126Z" fill="#e5cece"/>
  <path d="M58.512,11.397c-1.438.504-2.633,2.257-4.216,2.917-9.258,5.15-10.768,19.547-11.545,29.234l.034.198c1.949,5.62,3.028,7.359,3.901,6.477.162.343.345.677.56.995.721.969,1.163.601,1.317-.597.319-2.441.744-5.378.828-7.766l.174-.697c.112-.775.347-2.108.567-3.175.216-1.385.818-3.349.734-4.076,1.849-6.749,4.682-14.725,9.595-21.864.499-.724-1.248-1.808-1.949-1.646Z" fill="#e5cece"/>

  
  <path d="M13.983,67.299c-.78-2.725-.286-6.695-2.201-9.072-.977-.871-2.158,1.323-3.251,2.744-.725.902-1.09,2.014-1.716,2.964-.986,1.416-3.238,1.816-4.807,1.439-2.71-.751-2.051-4.272-1.839-6.467,1.019-6.845,5.298-10.661,10.259-15.132.915-.774,2.467-1.57,1.47-2.791-.573-.788-1.53-1.57-2.214-2.382-6.409-7.177-7.085-23.639-1.344-20.148,1.759,1.072,2.494,2.949,3.62,4.638.91,1.364,2.085,2.801,3.33,4.115,1.476,1.55,4.07,4.149,2.855,1.043-2.506-6.499-8.988-15.644-4.538-21.394.728-.961,1.893-1.795,3.074-1.219,4.602,2.908,10.072,10.738,13.064,15.187.625.953.758,3.214,1.967,3.232,1.826-.994,1.3-3.634,1.371-5.531-.154-5.975-2.488-24.681,6.207-16.385.615.718,1.097,1.552,1.354,2.46,1.613,5.818,1.486,11.598,2.396,17.438.212,1.307.371,2.604,1.326.57.959-1.894,2.041-4.041,3.01-5.958.807-1.73,1.453-2.17,2.876-3.047,3.012-1.881,5.925-5.217,9.164-5.789,1.522-.341,2.628.989,3.055,2.277.968,2.011.055,4.029-.953,5.762-1.245,2.51,2.188.994,3.373,1.325,1.197.188,1.656,1.541,1.701,2.88-.037,1.224-.335,2.194.425,2.3,2.662-.118,7.174-2.071,7.605,2.114.019.262.012.528-.019.789-.608,4.576-6.208,5.189-9.49,8.249-.924.808-1.406,2.239-.082,2.929,1.553.766,3.547.873,4.989,1.955,2.401,1.733,3.965,4.553,4.522,7.36.215,1.254.359,2.652-.952,3.361-1.521.728-3.83.502-5.535.35-1.414-.204-1.225-.729-2.289-1.515-1.302-1.009-2.445-.591-2.433,1.161-.259,7.521,5.945,15.816,1.154,22.104-1.009,1.073-2.934.841-4.028,1.345-.672.33-1.044.893-1.281,1.639-.571,2.15-.541,7.169-3.139,10.708-1.66,2.497-3.7,4.323-6.279,5.591-10.727,5.006-24.735,3.831-32.525-5.973-3.861-4.878-1.141-11.599-3.212-17.057l-.04-.171ZM41.204,37.408c-.885-10.775,1.634-24.448-4.683-33.93-1.536-2.062-1.531.954-1.589,2.53-.088,5.578,1.215,15.491-.525,18.677-.612,1.19-.863,2.603-.815,4.002-.041,2.376,1.352,4.036,1.773,6.263.703,3.231-.318,7.822,1.015,10.82.541,1.133,1.976,3.092,2.692,1.03,1.568-2.617,1.977-6.314,2.13-9.216l.002-.175ZM33.277,46.871c3.159-13.792-8.127-27.392-16.396-37.953-.457-.601-1.246-1.233-1.904-.668-.601.464-1.032,1.647-.906,2.438,3.708,11.174,10.024,21.726,10.951,33.739.183,1.835.105,4.949,1.519,6.143.929.436,1.789-1.192,2.615-1.592,1.076-.671,3.236-.811,4.022-1.966l.098-.142ZM48.443,50.129c.747-12.482,4.744-26.292,11.395-36.36.838-1.071.741-2.332-.767-2.466-1.371-.157-2.142,1.196-3.335,2.028-9.837,4.558-11.518,17.909-12.798,27.968-.1,1.546-1.23,2.412-1.54,3.946-.373,2.685-1.778,8.257,2.332,8.422.674.01,1.372-.233,2.001-.474,1.881-.744,2.776-1.104,2.705-2.882l.007-.182ZM62.031,22.386c1.92-1.975,3.201-4.177-1.21-1.152-2.485,1.851-5.949,4.905-4.672,6.439,2.992.793,4.542-3.261,5.784-5.161l.097-.126ZM22.225,39.532c-1.804-5.024-8.627-8.848-11.491-13.765-.563-.958-3.191-4.806-4.3-3.456-.402.717-.345,2.645-.223,4.641.095,1.109.618,2.086,1.371,2.865,4.617,4.944,5.307,12.361,12.391,13.052,2.303.341,2.641-1.256,2.288-3.173l-.036-.163ZM64.337,30.676c.912-.97,2.028-1.318,3.253-2.109,15.415-8.913-15.43-2.464-16.029,13.888.12,2.275-.887,4.537-.901,6.742.285,1.538,2.462.725,2.752-.453,1.231-4.056,3.109-7.985,5.52-11.827,1.47-2.485,3.142-4.429,5.299-6.136l.106-.105ZM65.388,38.394c-.823-.342-2.18-.095-3.304-.386-.215-.042-.474-.066-.693-.045-.923.229-1.357,1.776-1.776,2.623-1.277,3.237,2.052,1.443,5.14,2.901.472.227.975.54,1.364.952.374.389.627.859.869,1.311.68,1.515,2.638,1.631,4.349,1.638,1.346.046.979-1.264.629-2.17-1.1-2.708-4.107-5.406-6.436-6.767l-.141-.058ZM20.196,45.286C11.788,40.551.722,54.365,2.836,62.98c.36.233,1.124-.662,1.452-1.088,5.328-6.839,7.059-10.131,16.499-9.865.929-.055,2.255.358,2.916-.366.509-2.381-1.298-5.09-3.336-6.275l-.17-.1ZM59.724,46.927c-.583-1.69-1.689-2.431-1.951.049-.134,1.637.455,3.903,2.348,3.702.671-.115.46-.736.545-1.318.128-.923.043-2.025-.887-2.361l-.054-.073ZM34.968,49.452c-11.663.896-5.485,17.106-4.087,24.594,1.849,5.832,3.058-3.977,3.095-6.185.026-1.293.571-2.382,1.128-3.509.98-2.26.559-5.416,1.242-7.496.418-1.136,1.422-2.013,1.758-3.188.619-1.994-.679-4.113-2.93-4.207l-.206-.011ZM60.768,68.786c4.456,6.081,4.094-8.685-1.406-14.922-1.139-1.104-2.605-2.279-4.131-2.503-.654-.004-1.295.341-1.886.606-.957.558-4.819,1.191-3.622,2.343,1.945.851,3.485,2.123,4.639,4.046,1.081,1.818,2.384,3.249,3.687,4.751,1.144,1.723.642,4.702,2.612,5.595l.107.085ZM26.256,57.849c.02-1.095-.001-4.471.005-4.967,0-.059-.004-.009-.026.116-.412,2.231-3.989,1.234-5.362,1.419-.291.082-.135.194.132.433,1.213.962,3.796,3.67,5.228,3.039l.023-.038ZM23.165,58.528c-2.156-.76-3.38-3.181-5.57-3.923-.692-.215-1.538-.339-1.128.301,2.043,2.686,6.177,6.34,9.368,7.28.739.22.516-1.179.44-1.674-.122-.458-1.008-.311-1.437-.508-.724-.222-1.039-1.074-1.547-1.399l-.125-.076ZM48.785,56.2c-1.839-1.453-5.027-.253-7.303-.973-.248-.062-.562-.159-.8-.064-.672.352-.954,1.333-1.392,2.034-.478,1.02-1.591,2.952-.302,3.402.854.27,4.224-.393,6.593-1.184.775-.481,1.354-1.336,2.301-1.558,1.338-.328,1.893-.28,1.01-1.544l-.107-.113ZM14.627,56.411c-4.908-1.647,4.748,9.237,8.123,10.581,1.177.449,3.937,1.453,4.747,1.254.192-.091.048-.349-.267-.659-.433-.417-.845-.895-1.076-1.447-1.403-3.455-8.725-5.493-11.405-9.636l-.123-.093ZM49.297,61.302c.837-.61,2.406-.842,2.28-2.033-.085-.316-.289-.793-.716-.81-.582.264-.861.973-1.679,1.209-2.025.754-4.872.881-6.316,2.441-1.507,1.092-5.302-.357-5.086,2.004.052.262.381.584.83.689,1.71.321,2.286-1.28,3.903-1.504,2.378-.395,4.379-.351,6.601-1.892l.183-.106ZM55.453,63.281c-1.162-.893-3.7-.511-5.088.187-1.143.489-2.026,1.325-3.243,1.643-3.946.996-10.19-.716-10.958,3.397-.15.75.214,1.466,1.042,1.578,2.94.128,5.547-1.373,8.631-1.411,1.736-.48,9.964-2.898,9.684-5.312l-.069-.083ZM49.136,69.827c-4.644,3.705-13.377-.102-13.921,5.566-.178,2.793-1.934,2.352-4.327,2.332-2.108.106-2.362-1.261-2.754-3.104-.405-1.771-.214-3.452-1.878-4.249-2.751-1.279-6.852-3.433-9.336-5.903-1.163-1.185-1.218-.687-.928.661,1.495,6.186,1.035,12.768,3.456,18.677,6.5,10.706,23.896,9.371,32.797,2.761,5.012-4.225,4.978-13.702,4.526-19.763-.322-.521-1-.058-1.463.106-2.217.994-4.482,1.197-6.03,2.809l-.141.108Z" fill="#000100"/>
  <path d="M23.761,37.276c-1.062-3.472-1.994-6.212-3.487-10.373-1.997-5.565-6.909-12.924-5.357-18.265.449-1.537,1.461-.69,2.145.276,8.128,10.338,17.968,23.151,16.619,36.642-.071.908-.351,1.366-1.116.865-1.484-1.006-4.388-1.154-5.664-2.687-1.547-1.84-.857-4.537-2.539-6.296l-.601-.161Z" fill="#79a26c"/>
  <path d="M36.14,41.373c-.115-.362-.531.196-.523-.262.124-3.675-2.309-10.508-2.266-13.947-.121-1.819.978-2.576,1.22-4.359.206-3.897.171-13.353.57-17.866.117-1.223.247-2.154.705-2.028,5.66,4.005,9.185,44.054.381,42.21l-.087-3.748Z" fill="#79a26c"/>
  <path d="M13.02,37.651c-2.075-2.446-3.719-6.099-6.209-8.438-.535-.583-.785-1.305-.832-2.097-.097-1.688-.366-4.124.519-5.046.631-.656,2.496,1.076,2.88,1.695,3.581,5.577,9.343,9.434,12.579,14.76.159.304.223.578.133.782-.134.291-.504.387-.841.419-1.675.102-3.2-.541-4.745-1.061-1.006-.422-2.399-.484-3.342-.928l-.143-.085Z" fill="#79a26c"/>
  <path d="M19.869,45.429c-.002.327-.506.677-.815.906-3.817,2.892-6.626,5.795-9.937,9.421-1.402,2.177-3.07,4.997-5.066,6.573-.598.609-1.359,1.476-1.592.059-1.147-8.215,9.414-21.579,17.554-17.092l-.144.133Z" fill="#79a26c"/>
  <path d="M35.53,49.48c2.311,5.664-2.586,14.371-5.023,19.937-.366.71-.559.394-.7-.176-1.708-6.403-5.195-19.753,4.154-19.586l1.569-.174Z" fill="#79a26c"/>
  <path d="M51.615,44.216c-.925-9.46,9.668-18.902,18.928-19.687.453-.049,1.318-.065,1.455.282.255.496-.989,1.653-1.945,2.423-1.297,1.03-2.803,1.864-4.352,2.468-1.433.529-2.782.882-3.867,1.892-3.47,3.22-6.001,7.801-9.18,11.804-.242.3-1.508,3.093-1.781,3.031l.743-2.213Z" fill="#79a26c"/>
  <path d="M35.636,49.628c.859-.464,2.564,1.146,2.634,2.31.487,1.917-1.23,3.281-1.929,4.866-.547,1.697-.358,4.195-.821,6.231-.192,1.233-.946,2.151-1.325,3.294-.428,2.63-.564,6.574-1.492,8.527-.274.664-.577,1.074-.89,1.077-.223.004-.453-.204-.681-.666-.626-1.509-1.118-3.352-.959-5.052,2.14-6.186,6.13-12.488,5.262-19.014-.052-.47-.167-1.224.121-1.505l.081-.067Z" fill="#648659"/>
  <path d="M52.964,52.357c3.488-3.51,8.71,4.318,10.025,6.276,1.34,2.539,1.569,11.768-.392,11.549-1.001-.112-2.708-.679-2.572-1.785.716-6.423-1.317-10.654-5.644-14.926-.323-.328-.778-.777-.803-1.186l-.613.072Z" fill="#79a26c"/>
  <path d="M65.528,38.453c2.578,1.489,6.421,5.029,6.763,8.04.138,1.497-2.511.77-3.427.67-1.12-.215-1.734-.991-2.19-1.971-.406-.746-1.17-1.363-1.92-1.702-3.087-1.457-6.419.331-5.141-2.904.417-.847.855-2.396,1.777-2.622.311-.057.686.049,1.078.123.914.162,2.167,0,2.92.308l.141.058Z" fill="#79a26c"/>
  <path d="M53.469,52.387c4.727,4.442,8.424,8.46,7.226,15.452-.31,1.093-.907.355-1.226-.371-.755-1.677-1.268-4.094-3.803-6.568-1.449-1.295-2.124-4.319-3.765-5.374-.76-.695-2.852-1.518-2.25-2.297.699-.541,2.766-1.097,3.671-.899l.147.058Z" fill="#648659"/>
  <path d="M20.343,45.558c2.373.901,3.152,3.181,3.67,5.608.143.621-.049,1.203-.79,1.162-4.016-.162-10.358.204-13.932,3.342-.536.471,3.746-4.585,4.067-4.96,2.166-1.834,4.384-3.779,6.822-5.154l.163.002Z" fill="#648659"/>
  <path d="M24.142,37.26c.819-.313,1.378,1.363,1.419,2.18.24,6.453,4.59,4.381,7.679,6.906.262.351.198.729-.131,1.024-1.016.917-2.932,1.075-3.943,1.85-.669.536-1.606,2.058-2.683,1.566-1.493-1.596-1.447-4.501-1.872-6.573-.236-1.921-.381-3.895-.621-5.923-.026-.284-.068-.763.083-.956l.069-.074Z" fill="#648659"/>
  <path d="M65.255,29.78c-5.23,7.235-10.446,12.341-11.773,19.074-.087.308-.21.587-.391.802-.412.536-1.243.619-1.846.364-2.921-1.597,2.57-7.92,3.588-9.498,2.403-3.922,5.378-9.142,9.463-10.742h.959Z" fill="#648659"/>
  <path d="M42.678,42.332c.241.703.741,3.14,1.42,3.826,1.621,2.105,4.521,3.785,4.315,5.776-.339.562-.732.515-1.202,1.121-.164.144-1.26.072-1.433.205-.993.539-3.054.284-3.961-.129-.176-.111,1.035.534-.358-.452-2.244-1.588-1.405-8.841.783-9.911l.436-.436Z" fill="#648659"/>
  <path d="M41.177,37.276c.06.074.072.19.061.337-.268,2.005-.478,5.242-1.272,7.193-.816,2.006-.689,1.528-1.144,1.97-.215.208-.057.636-.151.918-2.867-.387-2.674-4.047-2.981-6.329-.099-1.045,1.372-.649,1.862-1.178,1.136-.951,1.644-3.198,3.553-2.972l.074.061Z" fill="#648659"/>
  <path d="M12.255,36.318c1.484-.057,4.303,1.656,5.405,2.876,1.199.604,3.393-.279,4.533.263,1.016.405.468,2.077.221,3.009-.51.613-1.638.434-2.313.477-3.338-.04-5.659-1.597-7.155-5.056l-.69-1.569Z" fill="#648659"/>
  <path d="M61.934,22.512c-1.15,1.693-2.13,4.593-4.47,5.18-.614.15-1.345.247-1.562-.34-.866-2.918,10.378-10.398,7.452-6.518-.398.534-.886,1.05-1.322,1.553l-.097.126Z" fill="#79a26c"/>
  <path d="M58.512,11.397c-1.438.504-2.633,2.257-4.216,2.917-9.258,5.15-10.768,19.547-11.545,29.234l.034.198c1.949,5.62,3.028,7.359,3.901,6.477.162.343.345.677.56.995.721.969,1.163.601,1.317-.597.319-2.441.744-5.378.828-7.766l.174-.697c.112-.775.347-2.108.567-3.175.216-1.385.818-3.349.734-4.076,1.849-6.749,4.682-14.725,9.595-21.864.499-.724-1.248-1.808-1.949-1.646Z" fill="#79a26c"/>
</svg>