<?xml version="1.0" encoding="UTF-8"?>
<svg id="Layer_1" xmlns="http://www.w3.org/2000/svg" width="58.3" height="58.8" version="1.1" viewBox="0 0 58.3 58.8">
  <!-- Generator: Adobe Illustrator 29.2.1, SVG Export Plug-In . SVG Version: 2.1.0 Build 116)  -->
  <defs>
    <style>
      .st0 {
        fill: #0c0b0a;
      }

      .st1 {
        fill: #191617;
      }

      .st2 {
        fill: #31322b;
      }

      .st3 {
        fill: #4c9080;
      }

      .st4 {
        fill: #9edaeb;
      }

      .st5 {
        fill: #9faece;
      }

      .st6 {
        fill: #334943;
      }

      .st7 {
        fill: #46ad9c;
      }

      .st8 {
        fill: #76a4a2;
      }
    </style>
  </defs>
  <path class="st0" d="M8.4,50.8c-1-8.2-1-16.4-.8-24.8C0,22.7-1.5,17.2,1.3,9.5,4.9-.2,11,3.6,18.9,2.6S24.2.4,27.4,0c4.3-.5,13.8,1.2,18.6,1.8s4.1,4.3,4.8,5,3.3.2,5.2,1.7c4.5,3.6,2.1,13.4-2.7,15.2-.4.2-1.2-.1-1.7,0s-1.8-.5-1.7.5v24.8c.8.3,1.4-.8,1.7-.8s1,.3.8.8c0,.3,0,.6,0,.8-2.3,2.5-2.3,5.4-6.3,6-9.9,1.3-22.7-1-33,0-2.7-.4-3.3-3.1-4.7-5ZM25.3,6.9l-5.9-.8v1.7C10.1,3.2,2.5,4.2,3.3,16.2c.4,6.2,1.7,5.6,6.8,6.8s4.7.7,6.8,1.7c-2.2.2-3.1.4-5.1.8s-1.1,0-1.7,0-1.1,0-1.7,0v23.2c-.1.9,1.1.5,1.7.5s1.1,0,1.7,0c0,1.4,0,2.8,0,4.2,3.9,0,7.9,0,11.8,0,.6,0,1.1,0,1.7,0,3.4,0,6.8,0,10.1,0s1.1,0,1.7,0c3.7,0,9,1,11.8-1.3v-28.3c-2.5-.2-5.2.2-7.6,0s-.6,0-.8,0c-2.5-.5-2.9-1.9-4.8-3.3l-2.8,2.2c1.6,3.1,3.5,3.7,5,7.1.1.3.5.6.8.8.2,1.3,0,2.9,0,4.2h-3.4c-.3-6.9,1.3-7.5-5.9-9.3s-.7-.5-.8-.8c.7-.6,1.9-1.1,2.5-1.7,1.2-1.3,2-2.2,1.7-4.2-1.5-.1-3,0-4.2.8-.3-.2-.6-.7-.8-.8-1.7-1.1-1.6-.7-3.4-.8l5.1-1.7v-.8c0,0,1-.6,1.7-.8.2.8.3,1.9.8,2.5,1.1,1.3,2,.6,2.5.8,5.1,2.4,16.6,8.5,20.3.8s1.3-8.4-2.5-9.3l-7.6-1.7c1.4-.1,2.8.1,4.2,0-2-2.8-8.3-1.7-11.8-1.7h-1.7c0-.8,0-1.7,0-2.5h-10.2c0,1.1,0,2.3,0,3.4Z"/>
  <path class="st5" d="M52.4,50c-.2,2.2.4,4.5-.2,6.6-1.8,1.2-3.1,1.7-5.3,1.9-11.2,1.1-24.2-.9-35.5,0l-1.8-.7c-2-1.6-.9-4.7-1.2-6.8,1.4,1.9,1.9,4.6,4.7,5,10.3-1,23,1.4,33,0,4-.5,4-3.4,6.3-6Z"/>
  <path class="st2" d="M53.2,23.8c-.4,7.7.5,15.6,0,23.3,0,1.1-.9,1.9-.9,2,.1-.5-.4-.9-.8-.8v-24.5c.5-.1,1.3.2,1.7,0Z"/>
  <path class="st4" d="M35.5,34.8c.2,6.2-.2,12.4,0,18.6-3.4,0-6.8,0-10.1,0l.9-23.2c.2-2.2,1.7-3.4,3.3-4.7,7.2,1.8,5.7,2.4,5.9,9.3Z"/>
  <path class="st7" d="M16.9,24.6c2-.2,3.9-.9,5.9-.8-6,6.5-5,11.3-4.2,19.4l5.1-.8v11c-3.9,0-7.9,0-11.8,0,0-1.4,0-2.8,0-4.2-.4-7.8.3-15.8,0-23.7,2-.4,2.9-.6,5.1-.8Z"/>
  <path class="st7" d="M41.4,23.8c2.4.2,5.1-.2,7.6,0v28.3c-2.8,2.2-8.1,1.2-11.8,1.3v-15.2s2.1,4.2,2.1,4.2c.5-1.1,4.6-5.3,4.7-5.7.7-3.3-1.5-9.6-2.5-12.9Z"/>
  <path class="st4" d="M19.4,7.7c.4.2,1.5.7,1.7.8s-.2,1.2.6,1.7c1.2.8,7.4,5,7.9,5.1v.8c-2.6-.1-5.2.3-7.8-.2s-10.9-4.9-12.9-4.9-1.6,2.8-2.1,3.4-2.9.8-3.4,1.7C2.5,4.2,10.1,3.2,19.4,7.7Z"/>
  <path class="st4" d="M25.3,6.9c0-1.1,0-2.3,0-3.4h10.2c0,.8,0,1.7,0,2.5.2,4-.6,7.3-5.6,7.4s-4.5-3.8-4.5-6.6Z"/>
  <path class="st8" d="M6.7,14.5c-.2,3.1,1.6,4.1,4.2,5.1s8.1.7,11-1.7c.8,0,1.7,0,2.5,0,1.8.1,1.7-.2,3.4.8-4.7,4.4-11.6,4.4-17.7,4.2-5-1.2-6.3-.5-6.8-6.8.5-.9,3.3-1.5,3.4-1.7Z"/>
  <path class="st4" d="M31.2,23c-.6.6-1.9,1.1-2.5,1.7-1.2,1.2-3.5,2.2-4.1,4-1.3,4.3,2.4,11.6-4.4,12.9.3-3.8-1.3-6.3-.4-10.1,1-4.6,4.7-7.5,8-10.1l3.4,1.7Z"/>
  <path class="st4" d="M52.4,9.4c3.8.9,4,6.2,2.5,9.3-.9-1-.9-2.3-1.7-3.4-5-7-15.3-1.4-21.1,1.7-.5-.6-.6-1.7-.8-2.5,3.9-1.3,5.6-3.9,10.1-4.7s8.8-.9,11-.4Z"/>
  <path class="st2" d="M28.7,19.6c-.3.2-.5,1.4-.8,1.7-3.3,2.6-7,5.5-8,10.1-.9,3.8.7,6.3.4,10.1,6.8-1.3,3.1-8.6,4.4-12.9.5-1.8,2.8-2.8,4.1-4,.2.4.5.8.8.8-1.6,1.3-3.2,2.5-3.3,4.7l-.9,23.2c-.6,0-1.1,0-1.7,0v-11s-5.1.8-5.1.8c-.7-8.1-1.7-13,4.2-19.4-2,0-3.9.6-5.9.8-2-1-4.5-1.2-6.8-1.7,6.2.2,13,.2,17.7-4.2.3.2.5.6.8.8Z"/>
  <path class="st8" d="M54.9,18.7c-3.7,7.7-15.1,1.6-20.3-.8,3.1-3.3,5.3-.4,8.1,0,4.2.6,7-.4,10.5-2.5.8,1.1.8,2.4,1.7,3.4Z"/>
  <path class="st4" d="M40.5,23.8c1,5.1,3.4,10,.2,15-.5.8,0,1.5-1.9,1.1,0-1.7,0-3.4,0-5.1s.2-3,0-4.2-.4-.8-.8-.8c-1.5-3.4-3.4-4-5-7.1l2.8-2.2c1.9,1.4,2.3,2.8,4.8,3.3Z"/>
  <path class="st2" d="M41.4,23.8c1,3.3,3.2,9.6,2.5,12.9,0,.4-4.1,4.6-4.7,5.7l-2.1-4.2v15.2c-.6,0-1.1,0-1.7,0-.2-6.2.2-12.4,0-18.6h3.4c0,1.7,0,3.4,0,5.1,2,.4,1.4-.2,1.9-1.1,3.2-4.9.8-9.9-.2-15,.3,0,.6,0,.8,0Z"/>
  <path class="st2" d="M53.2,15.3c-3.5,2.1-6.4,3.1-10.5,2.5s-5-3.2-8.1,0c-.6-.3-1.4.5-2.5-.8,5.9-3.1,16.1-8.7,21.1-1.7ZM49.8,14.5c-3-.9-6.5-1.6-9.3.4,2,1.9,7.9,2.3,9.3-.4Z"/>
  <path class="st6" d="M25.3,6.9c0,2.8.7,6.7,4.5,6.6s5.8-3.4,5.6-7.4h1.7v3.4c2.4-1.2,5-1.4,7.6-1.7l7.6,1.7c-2.3-.5-8.5,0-11,.4-4.5.8-6.2,3.4-10.1,4.7s-1.6.9-1.7.8c-.5,0-6.7-4.3-7.9-5.1s-.5-1.7-.6-1.7c.2.2,1.9.3,2.5.8v-2.5s-3.4,0-3.4,0c-.1,0,.7,1.6.8,1.7-.2-.1-1.3-.6-1.7-.8v-1.7s5.9.8,5.9.8Z"/>
  <path class="st2" d="M29.5,16.2l-5.1,1.7c-.8,0-1.7,0-2.5,0s-1.1,0-1.7,0c-.6-1.8-10.6-4.7-11-4.2,0,2.2-.6,4.1,1.7,5.1v.8c-2.6-.9-4.4-1.9-4.2-5.1.4-.6-.6-3.3,2.1-3.4s9.9,4.3,12.9,4.9,5.2,0,7.8.2Z"/>
  <path class="st3" d="M51.5,23.8v24.5c-.3,0-.9,1.1-1.7.8v-24.8c-.1-1,1.1-.3,1.7-.5Z"/>
  <path class="st1" d="M11.8,25.5c.3,7.9-.4,15.8,0,23.7-.6,0-1.1,0-1.7,0v-23.7c.6,0,1.2,0,1.7,0Z"/>
  <path class="st3" d="M10.1,25.5v23.7c-.6,0-1.8.4-1.7-.5v-23.2c.6,0,1.2,0,1.7,0Z"/>
  <path class="st7" d="M37.2,6.1c3.5,0,9.9-1.1,11.8,1.7-1.4.1-2.8-.1-4.2,0-2.7.3-5.2.5-7.6,1.7v-3.4Z"/>
  <path class="st8" d="M28.7,19.6c1.3-.9,2.8-.9,4.2-.8.3,2-.4,2.9-1.7,4.2l-3.4-1.7c.3-.3.5-1.5.8-1.7Z"/>
  <path class="st2" d="M38.8,30.6c-.3-.2-.7-.5-.8-.8.4,0,.8.4.8.8Z"/>
  <path class="st1" d="M20.2,17.9c.6,0,1.1,0,1.7,0-2.9,2.4-7.4,2.9-11,1.7v-.8c3.2.4,6.2-.7,9.3-.8Z"/>
  <path class="st7" d="M49.8,14.5c-1.4,2.7-7.3,2.3-9.3.4,2.8-2,6.3-1.3,9.3-.4Z"/>
  <path class="st7" d="M21.1,8.6c0,0-.9-1.6-.8-1.7h3.4s0,2.5,0,2.5c-.6-.5-2.3-.7-2.5-.8Z"/>
  <path class="st7" d="M20.2,17.9c-3.1.2-6.1,1.2-9.3.8-2.3-1-1.8-2.9-1.7-5.1.4-.4,10.4,2.4,11,4.2Z"/>
</svg>