<?xml version="1.0" encoding="UTF-8"?>
<svg id="Layer_1" xmlns="http://www.w3.org/2000/svg" width="24.1" height="26.1" version="1.1" viewBox="0 0 24.1 26.1">
  <!-- Generator: Adobe Illustrator 29.2.1, SVG Export Plug-In . SVG Version: 2.1.0 Build 116)  -->
  <defs>
    <style>
      .st0 {
        fill: #2c7f3e;
      }

      .st1 {
        fill: #5e3d28;
      }

      .st2 {
        fill: #8f5d3c;
      }

      .st3 {
        fill: #ef9b66;
      }

      .st4 {
        fill: #ab6f48;
      }

      .st5 {
        fill: #010101;
      }
    </style>
  </defs>
  <path class="st5" d="M2.1,19.3C-2.3,13.9.6,6.7,6.6,4.3s1.9-.4,2.3-.7c.8-.6-1-2.6,1.3-3.3,3.5-1.2,3.4,2,5,3.2.8.6,3,.9,4.3,1.7,4.4,2.8,6.2,8.9,3.1,13.3-4.5,6.5-15.5,6.8-20.4.7ZM14.9,8.8c.5-.8-.4-2.2-.6-3s0-1.4-.2-2.2c-.5-1.4-1.8-2.7-3.5-2.3.5,1.6.7,3.3.5,5s-1.1,1.2-1.2,1.7c-.3,1.4,4.3,2.1,5,.8ZM8.2,5.2c-1.1.3-1.2.5-2.2,1s-.7.2-1.5.7-2.1,1.6-2.1,1.8c-.2.3,0,.9,0,1.2-.2.5-.8,1-.9,1.9-.4,2.7.2,5.9,2.4,7.6,1.1.9,1.2.8,2.7.2,0,1.5.4,2.1,1.9,2.4,2.1.4,7.6.6,9.3-.8s.9-1.5,1.4-2.3l.4,1c.5.5,2.3-1.7,2.5-2.2s0-.8.1-1c.8-2.1,1.1-3.5.5-5.8-.1-.5-.3-.6-.5-1-1.1-2.5-2.1-2.8-4.4-3.9-.9-.4-1.7-1-2.7-1.2,0,1.3.9,2.9.4,4.2s-1,1.1-1.1,1.1c-1,.6-4.8-.2-5.2-1.4s.3-1.1.7-1.8.3,0,.4-.4c.2-.5,0-1.2,0-1.8-.9-.3-1.5.3-2.2.5Z"/>
  <path class="st1" d="M2.1,19.3c4.9,6.1,15.9,5.7,20.4-.7,1.5,5.9-7.2,7.9-11.5,7.5-3.4-.3-9.5-2.5-8.9-6.8Z"/>
  <path class="st4" d="M17.6,5.9c2.3,1.1,3.3,1.4,4.4,3.9-.8-1.1-2-1.1-3.2-1.2,0,0,0-.3,0-.4-.6-.8-3.2.5-3-1.5l1.8-.7Z"/>
  <path class="st4" d="M18.9,8.6c.1.2,2.5,1.6,3.1,2s-.1.7.6.1c.6,2.3.4,3.7-.5,5.8-.7.2-1.7,1-1.9,1.7l-.5-1c.2-.3.4-.9.1-1.2-.5.3-.7,1-1.1,1.3-1,.8-2.2.5-3.2.9s-1.8,1.8-2.1.2c.4-.3,1.1-.7,1.7-1.1s1.4-1.4,1.9-1.5,3,.3,3-.5-.4-.8-.5-1c0-1.1-.1-.9-.7-1.2-.4-.8-.7-1.6-1-2.4.4.3,1.2.4,1.6,1,1.7-1.9-1.3-2.8-2.8-2.2-1-1.2,1.6-1,2.4-1Z"/>
  <path class="st2" d="M17.6,5.9l-1.8.7c-.2,2,2.4.8,3,1.5s0,.4,0,.4c-.8,0-3.4-.3-2.4,1s1.1,1.1,1.2,1.2c.2.8.6,1.7,1,2.4.6.3.7.2.7,1.2-.3-.4-.4-.6-.7-1.2-.6-.3-.8-.3-1.2-1.1h-.5c-.2-.8-.9-1.4-1.6-1.8-.8,1.3-2.8.6-4.2.3-.8-.2-1.4-.4-2.1-.8-.4.8-1.5.8-1.9,1.1-.5.4-.7,2.5-1,3.2-.2.2,0,.8-.7.7,0-1.4.1-2.3.6-3.6l2.3-2c-1.3-.7-4.1-.3-5.3.4s-.4.4-.5.6l-.2-.5c0-.2-.1-.8,0-1.2s1.8-1.5,2.1-1.8c.8,1.6,2.9.8,4.4,1-.3-1.4-2-1.1-2.9-1.7.9-.5,1.1-.6,2.2-1,1-.3,1,1.1,1.7,1.7-.4.6-.9.9-.7,1.8s4.1,2,5.2,1.4c0,0,1-1,1.1-1.1.4-1.3-.4-2.9-.4-4.2,1,.2,1.8.8,2.7,1.2Z"/>
  <path class="st2" d="M18.9,8.6c1.2,0,2.3.2,3.2,1.2.2.3.4.5.5,1-.7.5-.4,0-.6-.1-.6-.5-2.9-1.9-3.1-2Z"/>
  <path class="st0" d="M14.9,8.8c-.7,1.3-5.3.6-5-.8s1-.7,1.2-1.7c.2-1.7,0-3.4-.5-5,1.7-.5,2.9.8,3.5,2.3.3.8,0,1.5.2,2.2s1.1,2.2.6,3Z"/>
  <path class="st2" d="M22,16.6c0,.2,0,.6-.1,1s-2,2.7-2.5,2.2l-.4-1c-.5.7-.6,1.7-1.4,2.3-1.7,1.4-7.2,1.2-9.3.8-1.4-.3-1.9-.9-1.9-2.4-1.5.6-1.6.7-2.7-.2l1.2-1c.5.4,1,.8,1.5,1.2s4.9,1.6,5.7,1.7c1.9.2,3.7-1.1,5.6-1.2.3,0,.1-.4.2-.5.5-.7,1.4-1.7,1.7-2.2l.5,1c.2-.7,1.2-1.4,1.9-1.7Z"/>
  <path class="st4" d="M2.6,10.3c-.5.8-.7,3.9-.4,4.7s.5.3.6.5c.1.2,0,.7.2.9s1.9,1.1,2.1,1v-1c1,.6,2-.4,1.7,1.2-.3,0-.8,0-1.2,0s-.6,0-1,0c0,0,.4.7.5.7l-1.2,1c-2.2-1.7-2.8-4.9-2.4-7.6s.7-1.3.9-1.9l.2.5Z"/>
  <path class="st3" d="M6,6.1c.9.6,2.6.3,2.9,1.7-1.5-.2-3.6.7-4.4-1,.7-.5.9-.4,1.5-.7Z"/>
  <path class="st4" d="M8.2,5.2c.7-.2,1.3-.7,2.2-.5,0,.6.1,1.2,0,1.8s-.4.3-.4.4c-.7-.6-.7-2-1.7-1.7Z"/>
  <path class="st3" d="M2.6,10.3c0-.2.4-.5.5-.6,1.3-.6,4.1-1.1,5.3-.4l-2.3,2c-.5,1.3-.6,2.2-.6,3.6s-.5.7.2.9h4.3s-1.2-2.4-1.2-2.4l-1-1c-.7.5-1.1,1-1.6,1.7.3-.8.5-2.8,1-3.2s1.5-.3,1.9-1.1c.7.4,1.3.6,2.1.8,1.4.3,3.4,1,4.2-.3.7.4,1.4,1,1.6,1.9-.6,1.2-1.8,1.9-1.7,3.4l4.6-.2c0,.8-2.3.3-3,.5s-1.4,1.2-1.9,1.5-1.3.9-1.7,1.1-2.2.7-2.3.7c-.4,0-1-.7-1.5-.9s-2.1-.7-2.7-.8c.3-1.6-.7-.6-1.6-1.2v1c-.3.2-2.1-.8-2.2-1-.2-.2,0-.7-.2-.9s-.5-.2-.6-.5c-.3-.8,0-3.9.4-4.7ZM12.5,14.9c-.5.2-2,2.2-1.4,2.5,1,.2,2.4.3,3.2-.5l-1.8-2.1Z"/>
  <path class="st5" d="M19.6,17.3c-.3.5-1.2,1.5-1.7,2.2-.9.2-2.1.1-3,.3s-.9.6-1.5.7-4.4-.6-5.2-.9c-.9-.4-2-1.3-2.7-2,.4,0,.9,0,1.2,0,.6,0,2.1.5,2.7.8s1.1.8,1.5.9,2.2-.6,2.3-.7c.3,1.7,1.5,0,2.1-.2,1-.4,2.2-.1,3.2-.9s.6-1,1.1-1.3c.3.3,0,.9-.1,1.2Z"/>
  <path class="st5" d="M18.6,13.2c.3.6.5.8.7,1.2s.5.9.5,1l-4.6.2c0-1.5,1.1-2.2,1.7-3.4h.5c.4.7.6.7,1.2,1Z"/>
  <path class="st3" d="M17.6,10.8c-.2-.1-1.1-1-1.2-1.2,1.5-.6,4.5.3,2.8,2.2-.3-.6-1.2-.7-1.6-1Z"/>
  <path class="st5" d="M5.5,14.9c.7,0,.6-.5.7-.7.5-.7.9-1.2,1.6-1.7l1,1,1.2,2.4h-4.3c-.6-.3-.2-.6-.2-1Z"/>
  <path class="st3" d="M5.5,17.6c.7.7,1.8,1.7,2.7,2,.8.3,4.5,1,5.2.9s1-.5,1.5-.7c.9-.2,2.1,0,3-.3,0,0,.2.4-.2.5-1.9.1-3.7,1.4-5.6,1.2s-5.2-1.3-5.7-1.7-.9-.8-1.5-1.2-.5-.7-.5-.7c.3,0,.6,0,1,0Z"/>
  <path class="st5" d="M12.5,14.9l1.8,2.1c-.8.8-2.1.7-3.2.5-.7-.4.8-2.3,1.4-2.5Z"/>
</svg>