<?xml version="1.0" encoding="UTF-8"?>
<svg id="Layer_1" xmlns="http://www.w3.org/2000/svg" width="29.2" height="34" version="1.1" viewBox="0 0 29.2 34">
  <!-- Generator: Adobe Illustrator 29.2.1, SVG Export Plug-In . SVG Version: 2.1.0 Build 116)  -->
  <defs>
    <style>
      .st0 {
        fill: #595d5e;
      }

      .st1 {
        fill: #191715;
      }

      .st2 {
        fill: #85724d;
      }

      .st3 {
        fill: #403c35;
      }

      .st4 {
        fill: #827160;
      }

      .st5 {
        fill: #cca16b;
      }

      .st6 {
        fill: #b1a695;
      }

      .st7 {
        fill: #ecddb8;
      }

      .st8 {
        fill: #4a4354;
      }

      .st9 {
        fill: #232323;
        opacity: .4;
      }

      .st10 {
        fill: #c8b077;
      }

      .st11 {
        fill: #2d2e21;
      }

      .st12 {
        fill: #bb955d;
      }

      .st13 {
        fill: #d2b7a1;
      }
    </style>
  </defs>
  <path class="st1" d="M2.4,26.4c.1-3.1-.7-9.2,1.4-11.6.6-.7,3-1.3,3.2-1.7.6-1.1-.6-6.9,3.5-6,2.8.7.8,4.6,1.3,6.5h1.4c-.1-1.9.2-4,0-5.9s-1-1.3-.9-2.3S13.9-.8,15.7.1c2,1.1,1,5.8,5.2,4.5v-2.4c1,0,2.1-.2,3,0s.7.8.8.9c-.1.5-.5.4-.9.5s-1,0-1.4,0l.3,2.9-4.1.9c-.7,2.6,2,2.1,3.8,3.6s.9,1.5,1.4,2.1,1.1.8,1.4,1.4c2.3,4,1.1,7,1.4,11.3s1.9,5.9-.3,6.5H1c.1-1.2.3-2.5.5-3.7s0-.3,0-.5h.9c0-.6,0-1.3,0-1.9ZM15.6,2.3c-.9-.8-1.8,2.4-1.8,2.7-.1,1.1,1.2,2.1.9,3.4h1.4c.4-.4,0-5.7-.5-6.1ZM18,13.6c.4-1.6-.6-3.5-.5-4.9s1-1.6.9-2.6c-1.9,1-1.7,5-1.4,6.9s.4,1.5.9.7ZM10.4,8.9c-2.4.2-1.6,3.5-1.9,4.9s-1.4,0-1,1.3h2.8s0-6.1,0-6.1ZM15.7,16.9v-7.3c0,0-.6-.7-.9-.7v8h.9ZM21.3,17.4c-1.4.3-.9-.7-.9-1.6s.5-3.9-.7-3.6c-.5.1-.2,2.8-.2,3.6s.5,1.9-.9,1.6v-1.9s-1.4,0-1.4,0v1.8c-2.2,1-3.5.8-3.3-1.8-1.8-.3-2.3,0-1.9,1.8-1.8.5-3.3.8-5.2,0l.5-1.9c-2.5-.5-2.9.8-3.8,2.8h21.8l-.5-2.8h-3.3s0,1.9,0,1.9ZM23.2,14.1c-.4-.8-.8-2.1-1.9-1.9v1.9s1.9,0,1.9,0ZM10.4,16.9v-.7c-.5-.7-1-.8-1.9-.7v1.4s1.9,0,1.9,0ZM3.8,19.3c-.6.2-.8.7-.2.9h22s-.5-.9-.5-.9H3.8ZM4.8,25c0-1.4,0-2.8,0-4.3-.4,0-.7.4-.8.8-.5,1.6-.4,8.3,1.6,9h17.4c1,0,.9-.9,1.6-1.3,0,.6.4,1,.6,1.5,1.8,3.1,1.6-2.7-.6-1.5-.3-2.6.3-5.8,0-8.5-.8-.1-.4,1.1-.5,1.6,0,1.2,0,2.4,0,3.5-.3,0-.7,0-.9,0l-1.4-1.4-.3,1.5h-3c0,0-.3-1.5-.3-1.5h-1.6c0,0-.3,1.5-.3,1.5h-2.6s.5-1.4.5-1.4c-1,.2-2.5-.3-3.5,0s-1.4,2.5-3.6,1.4v-1.4c-.8-.3-1.1.4-1.4.5s-.7,0-.9,0ZM9.5,22.1c-1.2-2.5-4.7.1-3.2,1.9s1.2,0,1.4,0,0,2,1.4,1.2,3.4-5.3.5-4.5c0,.4.1,1.1,0,1.4ZM14.2,21.2h-2.4s-.5,2.8-.5,2.8l2.4-.2.4-2.6ZM15.7,21.2c-1.9-.3-.6,3.2-.9,4.3,1.9.3.6-3.2.9-4.3ZM18.5,21.2h-1.9s0,2.8,0,2.8l1.7-.5.2-2.4ZM20.4,21.2c-1.9-.3-.6,3.2-.9,4.3h1.4s-.5-4.3-.5-4.3ZM21.3,24l1.4-.8v-1.3l-1.4-.8v2.8ZM3.4,31.6l.5-2.8c-1,.3-2.4,3.2-.5,2.8Z"/>
  <path class="st9" d="M1,32.5c0,0-.7.1-.9,0v-.6c-.1,0,1.3-3.1,1.3-3.1-.2,1.2-.4,2.5-.5,3.8h25.2c2.3-.7.5-4.6.3-6.6.4,1.9,4.5,7,1.6,8H2.2c-1.4-.2-.9-1.1-1.2-1.3Z"/>
  <path class="st11" d="M25.1,14.6c-.3-.6-1-.9-1.4-1.4,1.1.2,1.2-.8,1.5-1.6,1.2-3.2,2.3-6.2-1.5-7.9.4,0,.8,0,.9-.5,3.6,2,3.3,4.7,1.9,8.3s-1.7,1.6-1.5,3Z"/>
  <path class="st4" d="M2.4,26.4c0,.6,0,1.3,0,1.9h-.9c.1-.8.2-1.4.9-1.9Z"/>
  <path class="st11" d="M5.7,25c0,1.7-.3,1.3,1.2,1.4,3.5.3,13.4.4,16.3-.5.2,0,.7,0,.9,0,0,1.2.2,3.7-1.3,4.2-1.1.4-14.2.3-16,.1-2.7-.3-2-3.1-2.1-5.2.3,0,.7,0,.9,0ZM6.2,27.8c0,.2,0,.4,0,.5.1.3-.3,1,.3,1h16.3s-.5-1-.5-1v-.5l.7-.5H6c-.7.2.2.4.2.5Z"/>
  <path class="st7" d="M23.7,3.7c3.8,1.7,2.7,4.6,1.5,7.9s-.4,1.8-1.5,1.6c-.5-.6-.5-1.3-1.4-2.1-1.8-1.5-4.4-1-3.8-3.6l4.1-.9-.3-2.9c.5,0,1,0,1.4,0Z"/>
  <path class="st10" d="M21.3,17.4v-1.9s3.3,0,3.3,0l.5,2.8H3.4c.9-2,1.2-3.3,3.8-2.8l-.5,1.9c1.8.7,3.3.5,5.2,0-.4-1.8.1-2.1,1.9-1.8-.2,2.6,1.2,2.8,3.3,1.8v-1.8c0,0,1.5,0,1.5,0v1.9s2.6.4,2.6.4l.3-.4Z"/>
  <path class="st10" d="M4.8,25c.1,2.1-.6,4.9,2.1,5.2,1.8.2,15,.3,16-.1,1.5-.5,1.2-3,1.3-4.2s0-2.4,0-3.5-.4-1.8.5-1.6c.3,2.7-.3,5.9,0,8.5,2.2-1.2,2.5,4.6.6,1.5-.3-.5-.6-.9-.6-1.5-.7.4-.7,1.4-1.6,1.4H5.6c-2-.8-2.1-7.5-1.6-9.1s.4-.8.8-.8c0,1.4,0,2.8,0,4.3Z"/>
  <path class="st12" d="M25.1,19.3l.5.9H3.6c-.6-.3-.4-.7.2-.9h21.3Z"/>
  <path class="st12" d="M5.7,25c.3-.1.6-.8,1.4-.5v1.4c2.2,1.1,3.3-1.3,3.6-1.4.9-.2,2.4.2,3.5,0l-.5,1.4h2.6s.3-1.4.3-1.4h1.6c0,0,.3,1.3.3,1.3h3c0,0,.3-1.4.3-1.4l1.4,1.4c-3,.9-12.8.8-16.3.5-1.5-.1-1.2.2-1.2-1.4Z"/>
  <path class="st7" d="M15.6,2.3c.5.5.9,5.7.5,6.1h-1.4c.4-1.3-1-2.3-.9-3.4s.9-3.6,1.8-2.7Z"/>
  <path class="st12" d="M10.4,8.9v6.1s-2.8,0-2.8,0c-.5-1.3.8-.7,1-1.3.3-1.4-.5-4.7,1.9-4.9Z"/>
  <path class="st8" d="M25.1,19.3H3.8h21.3Z"/>
  <path class="st13" d="M9.5,22.1c.1-.3,0-1,0-1.4,2.9-.8.9,3.8-.5,4.5s-1.3-1.1-1.4-1.2c.7-.4,1.6-1.1,1.9-1.9Z"/>
  <path class="st4" d="M15.7,16.9h-.9v-8c.3,0,.9.6.9.7v7.3Z"/>
  <path class="st0" d="M7.6,24c-.2-.1-1.2.2-1.4,0-1.5-1.7,2-4.3,3.2-1.9-.3.8-1.2,1.5-1.9,1.9Z"/>
  <polygon class="st2" points="14.2 21.2 13.8 23.8 11.4 24 11.9 21.2 14.2 21.2"/>
  <path class="st12" d="M18.5,17.4c1.4.3.9-.7.9-1.6s-.2-3.4.2-3.6c1.2-.3.7,2.9.7,3.6s-.5,1.9.9,1.6l-.3.4-2.6-.4Z"/>
  <path class="st6" d="M18,13.6c-.6.8-.9,0-.9-.7-.2-1.9-.5-5.8,1.4-6.9,0,1-.8,1.6-.9,2.6s.9,3.3.5,4.9Z"/>
  <polygon class="st2" points="18.5 21.2 18.3 23.6 16.6 24 16.6 21.2 18.5 21.2"/>
  <path class="st12" d="M20.4,21.2l.5,4.3h-1.4c.3-1.1-.9-4.6.9-4.3Z"/>
  <path class="st4" d="M15.7,21.2c-.3,1.1.9,4.6-.9,4.3.3-1.1-.9-4.6.9-4.3Z"/>
  <polygon class="st2" points="21.3 24 21.3 21.2 22.7 22 22.7 23.2 21.3 24"/>
  <path class="st6" d="M23.2,14.1h-1.9s0-1.9,0-1.9c1.1-.2,1.5,1.1,1.9,1.9Z"/>
  <path class="st7" d="M10.4,16.9h-1.9s0-1.4,0-1.4c.9-.1,1.4,0,1.9.7v.7Z"/>
  <path class="st5" d="M3.4,31.6c-1.9.4-.5-2.6.5-2.8l-.5,2.8Z"/>
  <path class="st12" d="M22.3,28.3l.5.9H6.5c-.6,0-.2-.7-.3-.9h16.1Z"/>
  <path class="st2" d="M6.2,27.8s-.9-.3-.2-.5h17s-.7.5-.7.5H6.2Z"/>
  <path class="st3" d="M22.3,27.8v.5H6.2c0-.1,0-.3,0-.5h16.1Z"/>
</svg>